%TF.GenerationSoftware,KiCad,Pcbnew,10.0.3*%
%TF.CreationDate,2026-07-23T08:37:34+07:00*%
%TF.ProjectId,Project_VD,50726f6a-6563-4745-9f56-442e6b696361,rev?*%
%TF.SameCoordinates,Original*%
%TF.FileFunction,Paste,Bot*%
%TF.FilePolarity,Positive*%
%FSLAX46Y46*%
G04 Gerber Fmt 4.6, Leading zero omitted, Abs format (unit mm)*
G04 Created by KiCad (PCBNEW 10.0.3) date 2026-07-23 08:37:34*
%MOMM*%
%LPD*%
G01*
G04 APERTURE LIST*
G04 Aperture macros list*
%AMRoundRect*
0 Rectangle with rounded corners*
0 $1 Rounding radius*
0 $2 $3 $4 $5 $6 $7 $8 $9 X,Y pos of 4 corners*
0 Add a 4 corners polygon primitive as box body*
4,1,4,$2,$3,$4,$5,$6,$7,$8,$9,$2,$3,0*
0 Add four circle primitives for the rounded corners*
1,1,$1+$1,$2,$3*
1,1,$1+$1,$4,$5*
1,1,$1+$1,$6,$7*
1,1,$1+$1,$8,$9*
0 Add four rect primitives between the rounded corners*
20,1,$1+$1,$2,$3,$4,$5,0*
20,1,$1+$1,$4,$5,$6,$7,0*
20,1,$1+$1,$6,$7,$8,$9,0*
20,1,$1+$1,$8,$9,$2,$3,0*%
G04 Aperture macros list end*
%ADD10RoundRect,0.225000X0.225000X0.250000X-0.225000X0.250000X-0.225000X-0.250000X0.225000X-0.250000X0*%
%ADD11RoundRect,0.225000X-0.225000X-0.250000X0.225000X-0.250000X0.225000X0.250000X-0.225000X0.250000X0*%
%ADD12RoundRect,0.225000X0.250000X-0.225000X0.250000X0.225000X-0.250000X0.225000X-0.250000X-0.225000X0*%
%ADD13RoundRect,0.225000X-0.250000X0.225000X-0.250000X-0.225000X0.250000X-0.225000X0.250000X0.225000X0*%
G04 APERTURE END LIST*
D10*
%TO.C,C41*%
X229500000Y-189500000D03*
X227950000Y-189500000D03*
%TD*%
D11*
%TO.C,R7*%
X214950000Y-187000000D03*
X216500000Y-187000000D03*
%TD*%
%TO.C,R12*%
X214950000Y-190200000D03*
X216500000Y-190200000D03*
%TD*%
D10*
%TO.C,C50*%
X221400000Y-188800000D03*
X219850000Y-188800000D03*
%TD*%
%TO.C,C45*%
X224500000Y-182500000D03*
X222950000Y-182500000D03*
%TD*%
D11*
%TO.C,R8*%
X214950000Y-185400000D03*
X216500000Y-185400000D03*
%TD*%
D12*
%TO.C,C36*%
X231300000Y-184675000D03*
X231300000Y-183125000D03*
%TD*%
D10*
%TO.C,C39*%
X229500000Y-187500000D03*
X227950000Y-187500000D03*
%TD*%
%TO.C,C35*%
X229500000Y-183500000D03*
X227950000Y-183500000D03*
%TD*%
%TO.C,C37*%
X229500000Y-185500000D03*
X227950000Y-185500000D03*
%TD*%
%TO.C,C48*%
X224500000Y-189500000D03*
X222950000Y-189500000D03*
%TD*%
D11*
%TO.C,C40*%
X231300000Y-188500000D03*
X232850000Y-188500000D03*
%TD*%
%TO.C,R10*%
X214950000Y-183800000D03*
X216500000Y-183800000D03*
%TD*%
D12*
%TO.C,C43*%
X228400000Y-181975000D03*
X228400000Y-180425000D03*
%TD*%
D10*
%TO.C,C49*%
X221400000Y-183500000D03*
X219850000Y-183500000D03*
%TD*%
%TO.C,C47*%
X224475000Y-187900000D03*
X222925000Y-187900000D03*
%TD*%
%TO.C,C46*%
X224500000Y-184500000D03*
X222950000Y-184500000D03*
%TD*%
D11*
%TO.C,R11*%
X214950000Y-188600000D03*
X216500000Y-188600000D03*
%TD*%
D13*
%TO.C,C44*%
X228400000Y-191025000D03*
X228400000Y-192575000D03*
%TD*%
D11*
%TO.C,C38*%
X231300000Y-186500000D03*
X232850000Y-186500000D03*
%TD*%
D12*
%TO.C,C52*%
X232900000Y-184675000D03*
X232900000Y-183125000D03*
%TD*%
D11*
%TO.C,R9*%
X214950000Y-182200000D03*
X216500000Y-182200000D03*
%TD*%
D12*
%TO.C,C34*%
X230400000Y-181600000D03*
X230400000Y-180050000D03*
%TD*%
M02*
