M48
; DRILL file KiCad 10.0.3 date 2026-07-23T09:19:51
; FORMAT={-:-/ absolute / metric / decimal}
; #@! TF.CreationDate,2026-07-23T09:19:51+07:00
; #@! TF.GenerationSoftware,Kicad,Pcbnew,10.0.3
; #@! TF.FileFunction,Plated,1,4,PTH
FMAT,2
METRIC
; #@! TA.AperFunction,Plated,PTH,ViaDrill
T1C0.200
; #@! TA.AperFunction,Plated,PTH,ViaDrill
T2C0.300
; #@! TA.AperFunction,Plated,PTH,ComponentDrill
T3C1.000
; #@! TA.AperFunction,Plated,PTH,ComponentDrill
T4C1.300
; #@! TA.AperFunction,Plated,PTH,ComponentDrill
T5C2.700
%
G90
G05
T1
X218.9Y-183.5
X221.4Y-184.5
X221.4Y-189.5
X222.4Y-181.6
X222.4Y-190.3
X222.95Y-182.0
X222.95Y-188.9
X225.0Y-182.5
X225.0Y-189.5
X225.25Y-184.5
X225.25Y-187.5
X225.9Y-183.0
X225.9Y-189.0
X226.9Y-186.0
X227.425Y-180.425
X227.45Y-181.9
X227.45Y-191.025
X227.45Y-192.575
X227.95Y-184.05
X227.95Y-186.1
X227.95Y-186.9
X229.0Y-184.5
X229.0Y-186.5
X229.0Y-188.5
X229.4Y-181.8
X229.4Y-190.5
X230.05Y-183.5
X230.1Y-185.5
X230.1Y-187.5
X230.1Y-189.5
X230.7Y-186.5
X230.75Y-184.5
X230.75Y-188.5
X231.3Y-180.05
X231.3Y-181.6
X231.9Y-182.0
X232.9Y-182.2
X233.45Y-186.5
X233.45Y-188.5
X233.5Y-184.7
X252.5Y-135.0
X252.5Y-138.5
X252.5Y-139.75
X252.5Y-143.25
T2
X201.5Y-103.1
X201.5Y-104.6
X201.5Y-106.1
X201.5Y-107.6
X201.5Y-109.1
X201.5Y-110.6
X201.5Y-112.1
X201.5Y-113.6
X201.5Y-115.1
X201.5Y-116.6
X201.5Y-118.1
X201.5Y-119.6
X201.5Y-121.1
X201.5Y-122.6
X201.5Y-124.1
X201.5Y-125.6
X201.5Y-127.1
X201.5Y-128.6
X201.5Y-130.1
X201.5Y-131.6
X201.5Y-133.1
X201.5Y-134.6
X201.5Y-136.1
X201.5Y-137.6
X201.5Y-139.1
X201.5Y-140.6
X201.5Y-142.1
X201.5Y-143.6
X201.5Y-145.1
X201.5Y-146.6
X201.5Y-148.1
X201.5Y-149.6
X201.5Y-151.1
X201.5Y-152.6
X201.5Y-154.1
X201.5Y-155.6
X201.5Y-157.1
X201.5Y-158.6
X201.5Y-160.1
X201.5Y-161.6
X201.5Y-163.1
X201.5Y-164.6
X201.5Y-166.1
X201.5Y-167.6
X201.5Y-169.1
X201.5Y-170.6
X201.5Y-172.1
X201.5Y-173.6
X201.5Y-175.1
X201.5Y-176.6
X201.5Y-178.1
X201.5Y-179.6
X201.5Y-181.1
X201.5Y-182.6
X201.5Y-184.1
X201.5Y-185.6
X201.5Y-187.1
X201.5Y-188.6
X201.5Y-190.1
X201.5Y-191.6
X201.5Y-193.1
X201.5Y-194.6
X201.5Y-196.1
X201.934Y-197.477
X202.523Y-101.934
X203.1Y-198.5
X203.9Y-101.5
X204.1Y-145.3
X204.2Y-165.4
X204.6Y-198.5
X205.3Y-152.7
X205.3Y-162.1
X205.4Y-101.5
X206.1Y-198.5
X206.9Y-101.5
X207.6Y-198.5
X207.875Y-153.525
X207.875Y-161.375
X208.4Y-101.5
X209.1Y-198.5
X209.9Y-101.5
X210.3Y-160.4
X210.6Y-198.5
X211.4Y-101.5
X211.7Y-165.4
X212.1Y-198.5
X212.9Y-101.5
X213.2Y-145.3
X213.6Y-198.5
X213.9Y-182.2
X213.9Y-183.8
X213.9Y-185.4
X213.9Y-187.0
X213.9Y-188.6
X213.9Y-190.2
X214.4Y-101.5
X214.4Y-114.3
X215.1Y-198.5
X215.9Y-101.5
X215.9Y-143.2
X215.9Y-147.4
X216.6Y-198.5
X217.05Y-154.55
X217.4Y-101.5
X217.5Y-187.0
X217.6Y-158.05
X217.6Y-182.2
X218.1Y-198.5
X218.5Y-145.3
X218.8Y-150.5
X218.8Y-154.3
X218.8Y-155.4
X218.8Y-159.2
X218.9Y-101.5
X218.9Y-186.9
X219.2Y-188.8
X219.6Y-198.5
X219.9Y-126.5
X219.9Y-182.0
X220.4Y-101.5
X220.85Y-182.45
X220.9Y-186.9
X221.1Y-198.5
X221.8Y-133.8
X221.8Y-137.2
X221.9Y-101.5
X221.9Y-194.9
X222.6Y-198.5
X222.95Y-183.95
X223.4Y-101.5
X223.5Y-177.3
X224.1Y-181.3
X224.1Y-198.5
X224.8Y-175.9
X224.9Y-101.5
X225.1Y-145.3
X225.5Y-194.9
X225.6Y-153.1
X225.6Y-198.5
X226.1Y-181.0
X226.4Y-101.5
X226.8Y-185.0
X226.83Y-177.5
X227.1Y-198.5
X227.9Y-101.5
X228.6Y-198.5
X229.4Y-101.5
X229.5Y-194.9
X230.1Y-198.5
X230.3Y-194.9
X230.5Y-166.2
X230.5Y-167.2
X230.5Y-168.8
X230.9Y-101.5
X231.6Y-157.8
X231.6Y-161.4
X231.6Y-198.5
X232.4Y-101.5
X232.4Y-168.0
X233.1Y-198.5
X233.175Y-169.725
X233.2Y-153.4
X233.2Y-156.9
X233.2Y-157.8
X233.9Y-101.5
X233.9Y-194.9
X234.6Y-198.5
X234.8Y-165.735
X234.9Y-154.8
X235.0Y-151.6
X235.0Y-152.5
X235.05Y-159.15
X235.4Y-101.5
X236.1Y-198.5
X236.9Y-101.5
X237.6Y-198.5
X238.262Y-143.537
X238.3Y-182.0
X238.4Y-101.5
X239.076Y-145.244
X239.1Y-198.5
X239.814Y-147.799
X239.851Y-147.0
X239.862Y-143.537
X239.9Y-101.5
X240.1Y-133.8
X240.6Y-198.5
X241.4Y-101.5
X241.462Y-143.537
X241.5Y-172.7
X242.1Y-198.5
X242.462Y-173.679
X242.55Y-171.85
X242.6Y-128.4
X242.9Y-101.5
X243.6Y-198.5
X244.0Y-121.0
X244.0Y-122.6
X244.0Y-128.8
X244.1Y-172.7
X244.4Y-101.5
X244.8Y-172.1
X245.1Y-198.5
X245.125Y-130.875
X245.5Y-146.0
X245.8Y-172.0
X245.9Y-101.5
X246.5Y-172.7
X246.6Y-198.5
X246.7Y-123.2
X247.0Y-147.9
X247.2Y-107.6
X247.2Y-111.1
X247.4Y-101.5
X247.5Y-171.9
X247.6Y-124.8
X248.1Y-198.5
X248.2Y-128.3
X248.8Y-121.6
X248.8Y-123.2
X248.9Y-101.5
X248.9Y-173.7
X249.1Y-146.0
X249.6Y-198.5
X249.7Y-172.1
X250.4Y-101.5
X250.5Y-146.0
X250.612Y-176.287
X251.1Y-198.5
X251.9Y-101.5
X252.2Y-172.7
X252.212Y-176.287
X252.6Y-198.5
X253.4Y-101.5
X253.8Y-147.4
X253.862Y-176.3
X253.95Y-172.35
X254.1Y-115.3
X254.1Y-146.0
X254.1Y-198.5
X254.662Y-172.8
X254.9Y-101.5
X255.3Y-115.1
X255.4Y-116.3
X255.462Y-176.3
X255.575Y-105.325
X255.6Y-198.5
X255.925Y-133.1
X256.3Y-135.0
X256.4Y-101.5
X256.475Y-173.725
X256.9Y-130.3
X257.1Y-198.5
X257.9Y-101.5
X258.0Y-135.1
X258.01Y-143.1
X258.162Y-146.037
X258.425Y-173.7
X258.5Y-132.1
X258.6Y-198.5
X259.0Y-112.7
X259.0Y-130.2
X259.1Y-163.6
X259.3Y-155.3
X259.3Y-160.4
X259.3Y-161.6
X259.3Y-166.7
X259.4Y-101.5
X259.762Y-146.037
X259.762Y-149.537
X259.8Y-152.3
X259.83Y-160.93
X259.9Y-157.4
X259.975Y-173.675
X260.1Y-198.5
X260.2Y-153.1
X260.2Y-164.5
X260.45Y-170.15
X260.575Y-108.775
X260.9Y-101.5
X260.9Y-154.025
X260.9Y-163.6
X260.9Y-167.4
X261.6Y-198.5
X261.8Y-159.375
X262.2Y-108.6
X262.4Y-101.5
X262.45Y-163.75
X262.45Y-167.4
X262.5Y-150.5
X262.7Y-123.2
X262.8Y-126.4
X263.0Y-154.65
X263.1Y-198.5
X263.15Y-161.5
X263.4Y-153.9
X263.725Y-120.625
X263.9Y-101.5
X264.15Y-150.5
X264.3Y-154.0
X264.6Y-198.5
X265.4Y-101.5
X265.75Y-156.262
X266.1Y-157.7
X266.1Y-198.5
X266.9Y-101.5
X267.16Y-108.44
X267.6Y-198.5
X267.675Y-158.825
X268.1Y-123.1
X268.4Y-101.5
X269.1Y-198.5
X269.175Y-120.625
X269.9Y-101.5
X270.6Y-198.5
X271.4Y-101.5
X272.1Y-198.5
X272.9Y-101.5
X273.6Y-198.5
X274.4Y-101.5
X275.1Y-198.5
X275.9Y-101.5
X276.2Y-163.752
X276.224Y-192.324
X276.6Y-198.5
X277.3Y-101.822
X278.1Y-198.5
X278.178Y-102.7
X278.5Y-103.9
X278.5Y-105.4
X278.5Y-106.9
X278.5Y-108.4
X278.5Y-109.9
X278.5Y-111.4
X278.5Y-112.9
X278.5Y-114.4
X278.5Y-115.9
X278.5Y-117.4
X278.5Y-118.9
X278.5Y-120.4
X278.5Y-121.9
X278.5Y-123.4
X278.5Y-124.9
X278.5Y-126.4
X278.5Y-127.9
X278.5Y-129.4
X278.5Y-130.9
X278.5Y-132.4
X278.5Y-133.9
X278.5Y-135.4
X278.5Y-136.9
X278.5Y-138.4
X278.5Y-139.9
X278.5Y-141.4
X278.5Y-142.9
X278.5Y-144.4
X278.5Y-145.9
X278.5Y-147.4
X278.5Y-148.9
X278.5Y-150.4
X278.5Y-151.9
X278.5Y-153.4
X278.5Y-154.9
X279.079Y-156.808
X279.6Y-198.5
X279.951Y-158.367
X281.1Y-198.5
X281.164Y-159.679
X282.6Y-198.5
X282.65Y-160.672
X284.1Y-198.5
X284.326Y-161.29
X285.6Y-198.5
X286.1Y-161.5
X287.1Y-198.5
X287.6Y-161.5
X288.6Y-198.5
X289.1Y-161.5
X290.1Y-198.5
X290.6Y-161.5
X291.6Y-198.5
X292.1Y-161.5
X293.1Y-198.5
X293.6Y-161.5
X294.6Y-198.5
X295.1Y-161.5
X296.1Y-198.5
X296.6Y-161.5
X297.477Y-198.066
X297.94Y-162.356
X298.5Y-165.4
X298.5Y-166.9
X298.5Y-168.4
X298.5Y-169.9
X298.5Y-171.4
X298.5Y-172.9
X298.5Y-174.4
X298.5Y-175.9
X298.5Y-177.4
X298.5Y-178.9
X298.5Y-180.4
X298.5Y-181.9
X298.5Y-183.4
X298.5Y-184.9
X298.5Y-186.4
X298.5Y-187.9
X298.5Y-189.4
X298.5Y-190.9
X298.5Y-192.4
X298.5Y-193.9
X298.5Y-195.4
X298.5Y-196.9
X298.502Y-163.9
T3
X264.9Y-105.9
X264.9Y-108.44
X274.3Y-114.1
X274.3Y-116.64
X274.3Y-119.18
X274.3Y-121.72
X274.3Y-124.26
X274.3Y-126.8
X274.3Y-129.34
X274.3Y-131.88
X274.3Y-142.48
X274.3Y-145.02
X274.3Y-147.56
X274.3Y-150.1
X274.3Y-152.64
X274.3Y-155.18
X274.3Y-157.72
X274.3Y-160.26
T4
X207.2Y-115.8
X207.2Y-120.8
T5
X207.4Y-107.4
X207.4Y-192.6
X272.6Y-107.4
X292.6Y-192.6
M30
