%TF.GenerationSoftware,KiCad,Pcbnew,10.0.3*%
%TF.CreationDate,2026-07-23T08:37:34+07:00*%
%TF.ProjectId,Project_VD,50726f6a-6563-4745-9f56-442e6b696361,rev?*%
%TF.SameCoordinates,Original*%
%TF.FileFunction,Legend,Bot*%
%TF.FilePolarity,Positive*%
%FSLAX46Y46*%
G04 Gerber Fmt 4.6, Leading zero omitted, Abs format (unit mm)*
G04 Created by KiCad (PCBNEW 10.0.3) date 2026-07-23 08:37:34*
%MOMM*%
%LPD*%
G01*
G04 APERTURE LIST*
%ADD10C,0.100000*%
%ADD11C,0.150000*%
%ADD12C,0.120000*%
G04 APERTURE END LIST*
D10*
X229800000Y-190700000D02*
X229800000Y-190300000D01*
X229800000Y-190700000D02*
X229800000Y-191200000D01*
X229800000Y-191200000D02*
X230600000Y-191200000D01*
X230300000Y-190300000D02*
X227200000Y-190300000D01*
X230500000Y-189600000D02*
X233700000Y-189600000D01*
X233700000Y-197300000D01*
X230500000Y-197300000D01*
X230500000Y-189600000D01*
D11*
X232742857Y-196859580D02*
X232790476Y-196907200D01*
X232790476Y-196907200D02*
X232933333Y-196954819D01*
X232933333Y-196954819D02*
X233028571Y-196954819D01*
X233028571Y-196954819D02*
X233171428Y-196907200D01*
X233171428Y-196907200D02*
X233266666Y-196811961D01*
X233266666Y-196811961D02*
X233314285Y-196716723D01*
X233314285Y-196716723D02*
X233361904Y-196526247D01*
X233361904Y-196526247D02*
X233361904Y-196383390D01*
X233361904Y-196383390D02*
X233314285Y-196192914D01*
X233314285Y-196192914D02*
X233266666Y-196097676D01*
X233266666Y-196097676D02*
X233171428Y-196002438D01*
X233171428Y-196002438D02*
X233028571Y-195954819D01*
X233028571Y-195954819D02*
X232933333Y-195954819D01*
X232933333Y-195954819D02*
X232790476Y-196002438D01*
X232790476Y-196002438D02*
X232742857Y-196050057D01*
X231885714Y-196288152D02*
X231885714Y-196954819D01*
X232123809Y-195907200D02*
X232361904Y-196621485D01*
X232361904Y-196621485D02*
X231742857Y-196621485D01*
X230838095Y-196954819D02*
X231409523Y-196954819D01*
X231123809Y-196954819D02*
X231123809Y-195954819D01*
X231123809Y-195954819D02*
X231219047Y-196097676D01*
X231219047Y-196097676D02*
X231314285Y-196192914D01*
X231314285Y-196192914D02*
X231409523Y-196240533D01*
X212866666Y-187454819D02*
X213199999Y-186978628D01*
X213438094Y-187454819D02*
X213438094Y-186454819D01*
X213438094Y-186454819D02*
X213057142Y-186454819D01*
X213057142Y-186454819D02*
X212961904Y-186502438D01*
X212961904Y-186502438D02*
X212914285Y-186550057D01*
X212914285Y-186550057D02*
X212866666Y-186645295D01*
X212866666Y-186645295D02*
X212866666Y-186788152D01*
X212866666Y-186788152D02*
X212914285Y-186883390D01*
X212914285Y-186883390D02*
X212961904Y-186931009D01*
X212961904Y-186931009D02*
X213057142Y-186978628D01*
X213057142Y-186978628D02*
X213438094Y-186978628D01*
X212533332Y-186454819D02*
X211866666Y-186454819D01*
X211866666Y-186454819D02*
X212295237Y-187454819D01*
X212842857Y-190654819D02*
X213176190Y-190178628D01*
X213414285Y-190654819D02*
X213414285Y-189654819D01*
X213414285Y-189654819D02*
X213033333Y-189654819D01*
X213033333Y-189654819D02*
X212938095Y-189702438D01*
X212938095Y-189702438D02*
X212890476Y-189750057D01*
X212890476Y-189750057D02*
X212842857Y-189845295D01*
X212842857Y-189845295D02*
X212842857Y-189988152D01*
X212842857Y-189988152D02*
X212890476Y-190083390D01*
X212890476Y-190083390D02*
X212938095Y-190131009D01*
X212938095Y-190131009D02*
X213033333Y-190178628D01*
X213033333Y-190178628D02*
X213414285Y-190178628D01*
X211890476Y-190654819D02*
X212461904Y-190654819D01*
X212176190Y-190654819D02*
X212176190Y-189654819D01*
X212176190Y-189654819D02*
X212271428Y-189797676D01*
X212271428Y-189797676D02*
X212366666Y-189892914D01*
X212366666Y-189892914D02*
X212461904Y-189940533D01*
X211509523Y-189750057D02*
X211461904Y-189702438D01*
X211461904Y-189702438D02*
X211366666Y-189654819D01*
X211366666Y-189654819D02*
X211128571Y-189654819D01*
X211128571Y-189654819D02*
X211033333Y-189702438D01*
X211033333Y-189702438D02*
X210985714Y-189750057D01*
X210985714Y-189750057D02*
X210938095Y-189845295D01*
X210938095Y-189845295D02*
X210938095Y-189940533D01*
X210938095Y-189940533D02*
X210985714Y-190083390D01*
X210985714Y-190083390D02*
X211557142Y-190654819D01*
X211557142Y-190654819D02*
X210938095Y-190654819D01*
X221267857Y-187729580D02*
X221315476Y-187777200D01*
X221315476Y-187777200D02*
X221458333Y-187824819D01*
X221458333Y-187824819D02*
X221553571Y-187824819D01*
X221553571Y-187824819D02*
X221696428Y-187777200D01*
X221696428Y-187777200D02*
X221791666Y-187681961D01*
X221791666Y-187681961D02*
X221839285Y-187586723D01*
X221839285Y-187586723D02*
X221886904Y-187396247D01*
X221886904Y-187396247D02*
X221886904Y-187253390D01*
X221886904Y-187253390D02*
X221839285Y-187062914D01*
X221839285Y-187062914D02*
X221791666Y-186967676D01*
X221791666Y-186967676D02*
X221696428Y-186872438D01*
X221696428Y-186872438D02*
X221553571Y-186824819D01*
X221553571Y-186824819D02*
X221458333Y-186824819D01*
X221458333Y-186824819D02*
X221315476Y-186872438D01*
X221315476Y-186872438D02*
X221267857Y-186920057D01*
X220363095Y-186824819D02*
X220839285Y-186824819D01*
X220839285Y-186824819D02*
X220886904Y-187301009D01*
X220886904Y-187301009D02*
X220839285Y-187253390D01*
X220839285Y-187253390D02*
X220744047Y-187205771D01*
X220744047Y-187205771D02*
X220505952Y-187205771D01*
X220505952Y-187205771D02*
X220410714Y-187253390D01*
X220410714Y-187253390D02*
X220363095Y-187301009D01*
X220363095Y-187301009D02*
X220315476Y-187396247D01*
X220315476Y-187396247D02*
X220315476Y-187634342D01*
X220315476Y-187634342D02*
X220363095Y-187729580D01*
X220363095Y-187729580D02*
X220410714Y-187777200D01*
X220410714Y-187777200D02*
X220505952Y-187824819D01*
X220505952Y-187824819D02*
X220744047Y-187824819D01*
X220744047Y-187824819D02*
X220839285Y-187777200D01*
X220839285Y-187777200D02*
X220886904Y-187729580D01*
X219696428Y-186824819D02*
X219601190Y-186824819D01*
X219601190Y-186824819D02*
X219505952Y-186872438D01*
X219505952Y-186872438D02*
X219458333Y-186920057D01*
X219458333Y-186920057D02*
X219410714Y-187015295D01*
X219410714Y-187015295D02*
X219363095Y-187205771D01*
X219363095Y-187205771D02*
X219363095Y-187443866D01*
X219363095Y-187443866D02*
X219410714Y-187634342D01*
X219410714Y-187634342D02*
X219458333Y-187729580D01*
X219458333Y-187729580D02*
X219505952Y-187777200D01*
X219505952Y-187777200D02*
X219601190Y-187824819D01*
X219601190Y-187824819D02*
X219696428Y-187824819D01*
X219696428Y-187824819D02*
X219791666Y-187777200D01*
X219791666Y-187777200D02*
X219839285Y-187729580D01*
X219839285Y-187729580D02*
X219886904Y-187634342D01*
X219886904Y-187634342D02*
X219934523Y-187443866D01*
X219934523Y-187443866D02*
X219934523Y-187205771D01*
X219934523Y-187205771D02*
X219886904Y-187015295D01*
X219886904Y-187015295D02*
X219839285Y-186920057D01*
X219839285Y-186920057D02*
X219791666Y-186872438D01*
X219791666Y-186872438D02*
X219696428Y-186824819D01*
X224367857Y-179259580D02*
X224415476Y-179307200D01*
X224415476Y-179307200D02*
X224558333Y-179354819D01*
X224558333Y-179354819D02*
X224653571Y-179354819D01*
X224653571Y-179354819D02*
X224796428Y-179307200D01*
X224796428Y-179307200D02*
X224891666Y-179211961D01*
X224891666Y-179211961D02*
X224939285Y-179116723D01*
X224939285Y-179116723D02*
X224986904Y-178926247D01*
X224986904Y-178926247D02*
X224986904Y-178783390D01*
X224986904Y-178783390D02*
X224939285Y-178592914D01*
X224939285Y-178592914D02*
X224891666Y-178497676D01*
X224891666Y-178497676D02*
X224796428Y-178402438D01*
X224796428Y-178402438D02*
X224653571Y-178354819D01*
X224653571Y-178354819D02*
X224558333Y-178354819D01*
X224558333Y-178354819D02*
X224415476Y-178402438D01*
X224415476Y-178402438D02*
X224367857Y-178450057D01*
X223510714Y-178688152D02*
X223510714Y-179354819D01*
X223748809Y-178307200D02*
X223986904Y-179021485D01*
X223986904Y-179021485D02*
X223367857Y-179021485D01*
X222510714Y-178354819D02*
X222986904Y-178354819D01*
X222986904Y-178354819D02*
X223034523Y-178831009D01*
X223034523Y-178831009D02*
X222986904Y-178783390D01*
X222986904Y-178783390D02*
X222891666Y-178735771D01*
X222891666Y-178735771D02*
X222653571Y-178735771D01*
X222653571Y-178735771D02*
X222558333Y-178783390D01*
X222558333Y-178783390D02*
X222510714Y-178831009D01*
X222510714Y-178831009D02*
X222463095Y-178926247D01*
X222463095Y-178926247D02*
X222463095Y-179164342D01*
X222463095Y-179164342D02*
X222510714Y-179259580D01*
X222510714Y-179259580D02*
X222558333Y-179307200D01*
X222558333Y-179307200D02*
X222653571Y-179354819D01*
X222653571Y-179354819D02*
X222891666Y-179354819D01*
X222891666Y-179354819D02*
X222986904Y-179307200D01*
X222986904Y-179307200D02*
X223034523Y-179259580D01*
X212866666Y-185854819D02*
X213199999Y-185378628D01*
X213438094Y-185854819D02*
X213438094Y-184854819D01*
X213438094Y-184854819D02*
X213057142Y-184854819D01*
X213057142Y-184854819D02*
X212961904Y-184902438D01*
X212961904Y-184902438D02*
X212914285Y-184950057D01*
X212914285Y-184950057D02*
X212866666Y-185045295D01*
X212866666Y-185045295D02*
X212866666Y-185188152D01*
X212866666Y-185188152D02*
X212914285Y-185283390D01*
X212914285Y-185283390D02*
X212961904Y-185331009D01*
X212961904Y-185331009D02*
X213057142Y-185378628D01*
X213057142Y-185378628D02*
X213438094Y-185378628D01*
X212295237Y-185283390D02*
X212390475Y-185235771D01*
X212390475Y-185235771D02*
X212438094Y-185188152D01*
X212438094Y-185188152D02*
X212485713Y-185092914D01*
X212485713Y-185092914D02*
X212485713Y-185045295D01*
X212485713Y-185045295D02*
X212438094Y-184950057D01*
X212438094Y-184950057D02*
X212390475Y-184902438D01*
X212390475Y-184902438D02*
X212295237Y-184854819D01*
X212295237Y-184854819D02*
X212104761Y-184854819D01*
X212104761Y-184854819D02*
X212009523Y-184902438D01*
X212009523Y-184902438D02*
X211961904Y-184950057D01*
X211961904Y-184950057D02*
X211914285Y-185045295D01*
X211914285Y-185045295D02*
X211914285Y-185092914D01*
X211914285Y-185092914D02*
X211961904Y-185188152D01*
X211961904Y-185188152D02*
X212009523Y-185235771D01*
X212009523Y-185235771D02*
X212104761Y-185283390D01*
X212104761Y-185283390D02*
X212295237Y-185283390D01*
X212295237Y-185283390D02*
X212390475Y-185331009D01*
X212390475Y-185331009D02*
X212438094Y-185378628D01*
X212438094Y-185378628D02*
X212485713Y-185473866D01*
X212485713Y-185473866D02*
X212485713Y-185664342D01*
X212485713Y-185664342D02*
X212438094Y-185759580D01*
X212438094Y-185759580D02*
X212390475Y-185807200D01*
X212390475Y-185807200D02*
X212295237Y-185854819D01*
X212295237Y-185854819D02*
X212104761Y-185854819D01*
X212104761Y-185854819D02*
X212009523Y-185807200D01*
X212009523Y-185807200D02*
X211961904Y-185759580D01*
X211961904Y-185759580D02*
X211914285Y-185664342D01*
X211914285Y-185664342D02*
X211914285Y-185473866D01*
X211914285Y-185473866D02*
X211961904Y-185378628D01*
X211961904Y-185378628D02*
X212009523Y-185331009D01*
X212009523Y-185331009D02*
X212104761Y-185283390D01*
X234859580Y-183257142D02*
X234907200Y-183209523D01*
X234907200Y-183209523D02*
X234954819Y-183066666D01*
X234954819Y-183066666D02*
X234954819Y-182971428D01*
X234954819Y-182971428D02*
X234907200Y-182828571D01*
X234907200Y-182828571D02*
X234811961Y-182733333D01*
X234811961Y-182733333D02*
X234716723Y-182685714D01*
X234716723Y-182685714D02*
X234526247Y-182638095D01*
X234526247Y-182638095D02*
X234383390Y-182638095D01*
X234383390Y-182638095D02*
X234192914Y-182685714D01*
X234192914Y-182685714D02*
X234097676Y-182733333D01*
X234097676Y-182733333D02*
X234002438Y-182828571D01*
X234002438Y-182828571D02*
X233954819Y-182971428D01*
X233954819Y-182971428D02*
X233954819Y-183066666D01*
X233954819Y-183066666D02*
X234002438Y-183209523D01*
X234002438Y-183209523D02*
X234050057Y-183257142D01*
X233954819Y-183590476D02*
X233954819Y-184209523D01*
X233954819Y-184209523D02*
X234335771Y-183876190D01*
X234335771Y-183876190D02*
X234335771Y-184019047D01*
X234335771Y-184019047D02*
X234383390Y-184114285D01*
X234383390Y-184114285D02*
X234431009Y-184161904D01*
X234431009Y-184161904D02*
X234526247Y-184209523D01*
X234526247Y-184209523D02*
X234764342Y-184209523D01*
X234764342Y-184209523D02*
X234859580Y-184161904D01*
X234859580Y-184161904D02*
X234907200Y-184114285D01*
X234907200Y-184114285D02*
X234954819Y-184019047D01*
X234954819Y-184019047D02*
X234954819Y-183733333D01*
X234954819Y-183733333D02*
X234907200Y-183638095D01*
X234907200Y-183638095D02*
X234859580Y-183590476D01*
X233954819Y-185066666D02*
X233954819Y-184876190D01*
X233954819Y-184876190D02*
X234002438Y-184780952D01*
X234002438Y-184780952D02*
X234050057Y-184733333D01*
X234050057Y-184733333D02*
X234192914Y-184638095D01*
X234192914Y-184638095D02*
X234383390Y-184590476D01*
X234383390Y-184590476D02*
X234764342Y-184590476D01*
X234764342Y-184590476D02*
X234859580Y-184638095D01*
X234859580Y-184638095D02*
X234907200Y-184685714D01*
X234907200Y-184685714D02*
X234954819Y-184780952D01*
X234954819Y-184780952D02*
X234954819Y-184971428D01*
X234954819Y-184971428D02*
X234907200Y-185066666D01*
X234907200Y-185066666D02*
X234859580Y-185114285D01*
X234859580Y-185114285D02*
X234764342Y-185161904D01*
X234764342Y-185161904D02*
X234526247Y-185161904D01*
X234526247Y-185161904D02*
X234431009Y-185114285D01*
X234431009Y-185114285D02*
X234383390Y-185066666D01*
X234383390Y-185066666D02*
X234335771Y-184971428D01*
X234335771Y-184971428D02*
X234335771Y-184780952D01*
X234335771Y-184780952D02*
X234383390Y-184685714D01*
X234383390Y-184685714D02*
X234431009Y-184638095D01*
X234431009Y-184638095D02*
X234526247Y-184590476D01*
X232742857Y-194859580D02*
X232790476Y-194907200D01*
X232790476Y-194907200D02*
X232933333Y-194954819D01*
X232933333Y-194954819D02*
X233028571Y-194954819D01*
X233028571Y-194954819D02*
X233171428Y-194907200D01*
X233171428Y-194907200D02*
X233266666Y-194811961D01*
X233266666Y-194811961D02*
X233314285Y-194716723D01*
X233314285Y-194716723D02*
X233361904Y-194526247D01*
X233361904Y-194526247D02*
X233361904Y-194383390D01*
X233361904Y-194383390D02*
X233314285Y-194192914D01*
X233314285Y-194192914D02*
X233266666Y-194097676D01*
X233266666Y-194097676D02*
X233171428Y-194002438D01*
X233171428Y-194002438D02*
X233028571Y-193954819D01*
X233028571Y-193954819D02*
X232933333Y-193954819D01*
X232933333Y-193954819D02*
X232790476Y-194002438D01*
X232790476Y-194002438D02*
X232742857Y-194050057D01*
X232409523Y-193954819D02*
X231790476Y-193954819D01*
X231790476Y-193954819D02*
X232123809Y-194335771D01*
X232123809Y-194335771D02*
X231980952Y-194335771D01*
X231980952Y-194335771D02*
X231885714Y-194383390D01*
X231885714Y-194383390D02*
X231838095Y-194431009D01*
X231838095Y-194431009D02*
X231790476Y-194526247D01*
X231790476Y-194526247D02*
X231790476Y-194764342D01*
X231790476Y-194764342D02*
X231838095Y-194859580D01*
X231838095Y-194859580D02*
X231885714Y-194907200D01*
X231885714Y-194907200D02*
X231980952Y-194954819D01*
X231980952Y-194954819D02*
X232266666Y-194954819D01*
X232266666Y-194954819D02*
X232361904Y-194907200D01*
X232361904Y-194907200D02*
X232409523Y-194859580D01*
X231314285Y-194954819D02*
X231123809Y-194954819D01*
X231123809Y-194954819D02*
X231028571Y-194907200D01*
X231028571Y-194907200D02*
X230980952Y-194859580D01*
X230980952Y-194859580D02*
X230885714Y-194716723D01*
X230885714Y-194716723D02*
X230838095Y-194526247D01*
X230838095Y-194526247D02*
X230838095Y-194145295D01*
X230838095Y-194145295D02*
X230885714Y-194050057D01*
X230885714Y-194050057D02*
X230933333Y-194002438D01*
X230933333Y-194002438D02*
X231028571Y-193954819D01*
X231028571Y-193954819D02*
X231219047Y-193954819D01*
X231219047Y-193954819D02*
X231314285Y-194002438D01*
X231314285Y-194002438D02*
X231361904Y-194050057D01*
X231361904Y-194050057D02*
X231409523Y-194145295D01*
X231409523Y-194145295D02*
X231409523Y-194383390D01*
X231409523Y-194383390D02*
X231361904Y-194478628D01*
X231361904Y-194478628D02*
X231314285Y-194526247D01*
X231314285Y-194526247D02*
X231219047Y-194573866D01*
X231219047Y-194573866D02*
X231028571Y-194573866D01*
X231028571Y-194573866D02*
X230933333Y-194526247D01*
X230933333Y-194526247D02*
X230885714Y-194478628D01*
X230885714Y-194478628D02*
X230838095Y-194383390D01*
X232742857Y-190859580D02*
X232790476Y-190907200D01*
X232790476Y-190907200D02*
X232933333Y-190954819D01*
X232933333Y-190954819D02*
X233028571Y-190954819D01*
X233028571Y-190954819D02*
X233171428Y-190907200D01*
X233171428Y-190907200D02*
X233266666Y-190811961D01*
X233266666Y-190811961D02*
X233314285Y-190716723D01*
X233314285Y-190716723D02*
X233361904Y-190526247D01*
X233361904Y-190526247D02*
X233361904Y-190383390D01*
X233361904Y-190383390D02*
X233314285Y-190192914D01*
X233314285Y-190192914D02*
X233266666Y-190097676D01*
X233266666Y-190097676D02*
X233171428Y-190002438D01*
X233171428Y-190002438D02*
X233028571Y-189954819D01*
X233028571Y-189954819D02*
X232933333Y-189954819D01*
X232933333Y-189954819D02*
X232790476Y-190002438D01*
X232790476Y-190002438D02*
X232742857Y-190050057D01*
X232409523Y-189954819D02*
X231790476Y-189954819D01*
X231790476Y-189954819D02*
X232123809Y-190335771D01*
X232123809Y-190335771D02*
X231980952Y-190335771D01*
X231980952Y-190335771D02*
X231885714Y-190383390D01*
X231885714Y-190383390D02*
X231838095Y-190431009D01*
X231838095Y-190431009D02*
X231790476Y-190526247D01*
X231790476Y-190526247D02*
X231790476Y-190764342D01*
X231790476Y-190764342D02*
X231838095Y-190859580D01*
X231838095Y-190859580D02*
X231885714Y-190907200D01*
X231885714Y-190907200D02*
X231980952Y-190954819D01*
X231980952Y-190954819D02*
X232266666Y-190954819D01*
X232266666Y-190954819D02*
X232361904Y-190907200D01*
X232361904Y-190907200D02*
X232409523Y-190859580D01*
X230885714Y-189954819D02*
X231361904Y-189954819D01*
X231361904Y-189954819D02*
X231409523Y-190431009D01*
X231409523Y-190431009D02*
X231361904Y-190383390D01*
X231361904Y-190383390D02*
X231266666Y-190335771D01*
X231266666Y-190335771D02*
X231028571Y-190335771D01*
X231028571Y-190335771D02*
X230933333Y-190383390D01*
X230933333Y-190383390D02*
X230885714Y-190431009D01*
X230885714Y-190431009D02*
X230838095Y-190526247D01*
X230838095Y-190526247D02*
X230838095Y-190764342D01*
X230838095Y-190764342D02*
X230885714Y-190859580D01*
X230885714Y-190859580D02*
X230933333Y-190907200D01*
X230933333Y-190907200D02*
X231028571Y-190954819D01*
X231028571Y-190954819D02*
X231266666Y-190954819D01*
X231266666Y-190954819D02*
X231361904Y-190907200D01*
X231361904Y-190907200D02*
X231409523Y-190859580D01*
X232742857Y-192859580D02*
X232790476Y-192907200D01*
X232790476Y-192907200D02*
X232933333Y-192954819D01*
X232933333Y-192954819D02*
X233028571Y-192954819D01*
X233028571Y-192954819D02*
X233171428Y-192907200D01*
X233171428Y-192907200D02*
X233266666Y-192811961D01*
X233266666Y-192811961D02*
X233314285Y-192716723D01*
X233314285Y-192716723D02*
X233361904Y-192526247D01*
X233361904Y-192526247D02*
X233361904Y-192383390D01*
X233361904Y-192383390D02*
X233314285Y-192192914D01*
X233314285Y-192192914D02*
X233266666Y-192097676D01*
X233266666Y-192097676D02*
X233171428Y-192002438D01*
X233171428Y-192002438D02*
X233028571Y-191954819D01*
X233028571Y-191954819D02*
X232933333Y-191954819D01*
X232933333Y-191954819D02*
X232790476Y-192002438D01*
X232790476Y-192002438D02*
X232742857Y-192050057D01*
X232409523Y-191954819D02*
X231790476Y-191954819D01*
X231790476Y-191954819D02*
X232123809Y-192335771D01*
X232123809Y-192335771D02*
X231980952Y-192335771D01*
X231980952Y-192335771D02*
X231885714Y-192383390D01*
X231885714Y-192383390D02*
X231838095Y-192431009D01*
X231838095Y-192431009D02*
X231790476Y-192526247D01*
X231790476Y-192526247D02*
X231790476Y-192764342D01*
X231790476Y-192764342D02*
X231838095Y-192859580D01*
X231838095Y-192859580D02*
X231885714Y-192907200D01*
X231885714Y-192907200D02*
X231980952Y-192954819D01*
X231980952Y-192954819D02*
X232266666Y-192954819D01*
X232266666Y-192954819D02*
X232361904Y-192907200D01*
X232361904Y-192907200D02*
X232409523Y-192859580D01*
X231457142Y-191954819D02*
X230790476Y-191954819D01*
X230790476Y-191954819D02*
X231219047Y-192954819D01*
X224367857Y-193059580D02*
X224415476Y-193107200D01*
X224415476Y-193107200D02*
X224558333Y-193154819D01*
X224558333Y-193154819D02*
X224653571Y-193154819D01*
X224653571Y-193154819D02*
X224796428Y-193107200D01*
X224796428Y-193107200D02*
X224891666Y-193011961D01*
X224891666Y-193011961D02*
X224939285Y-192916723D01*
X224939285Y-192916723D02*
X224986904Y-192726247D01*
X224986904Y-192726247D02*
X224986904Y-192583390D01*
X224986904Y-192583390D02*
X224939285Y-192392914D01*
X224939285Y-192392914D02*
X224891666Y-192297676D01*
X224891666Y-192297676D02*
X224796428Y-192202438D01*
X224796428Y-192202438D02*
X224653571Y-192154819D01*
X224653571Y-192154819D02*
X224558333Y-192154819D01*
X224558333Y-192154819D02*
X224415476Y-192202438D01*
X224415476Y-192202438D02*
X224367857Y-192250057D01*
X223510714Y-192488152D02*
X223510714Y-193154819D01*
X223748809Y-192107200D02*
X223986904Y-192821485D01*
X223986904Y-192821485D02*
X223367857Y-192821485D01*
X222844047Y-192583390D02*
X222939285Y-192535771D01*
X222939285Y-192535771D02*
X222986904Y-192488152D01*
X222986904Y-192488152D02*
X223034523Y-192392914D01*
X223034523Y-192392914D02*
X223034523Y-192345295D01*
X223034523Y-192345295D02*
X222986904Y-192250057D01*
X222986904Y-192250057D02*
X222939285Y-192202438D01*
X222939285Y-192202438D02*
X222844047Y-192154819D01*
X222844047Y-192154819D02*
X222653571Y-192154819D01*
X222653571Y-192154819D02*
X222558333Y-192202438D01*
X222558333Y-192202438D02*
X222510714Y-192250057D01*
X222510714Y-192250057D02*
X222463095Y-192345295D01*
X222463095Y-192345295D02*
X222463095Y-192392914D01*
X222463095Y-192392914D02*
X222510714Y-192488152D01*
X222510714Y-192488152D02*
X222558333Y-192535771D01*
X222558333Y-192535771D02*
X222653571Y-192583390D01*
X222653571Y-192583390D02*
X222844047Y-192583390D01*
X222844047Y-192583390D02*
X222939285Y-192631009D01*
X222939285Y-192631009D02*
X222986904Y-192678628D01*
X222986904Y-192678628D02*
X223034523Y-192773866D01*
X223034523Y-192773866D02*
X223034523Y-192964342D01*
X223034523Y-192964342D02*
X222986904Y-193059580D01*
X222986904Y-193059580D02*
X222939285Y-193107200D01*
X222939285Y-193107200D02*
X222844047Y-193154819D01*
X222844047Y-193154819D02*
X222653571Y-193154819D01*
X222653571Y-193154819D02*
X222558333Y-193107200D01*
X222558333Y-193107200D02*
X222510714Y-193059580D01*
X222510714Y-193059580D02*
X222463095Y-192964342D01*
X222463095Y-192964342D02*
X222463095Y-192773866D01*
X222463095Y-192773866D02*
X222510714Y-192678628D01*
X222510714Y-192678628D02*
X222558333Y-192631009D01*
X222558333Y-192631009D02*
X222653571Y-192583390D01*
X235742857Y-188859580D02*
X235790476Y-188907200D01*
X235790476Y-188907200D02*
X235933333Y-188954819D01*
X235933333Y-188954819D02*
X236028571Y-188954819D01*
X236028571Y-188954819D02*
X236171428Y-188907200D01*
X236171428Y-188907200D02*
X236266666Y-188811961D01*
X236266666Y-188811961D02*
X236314285Y-188716723D01*
X236314285Y-188716723D02*
X236361904Y-188526247D01*
X236361904Y-188526247D02*
X236361904Y-188383390D01*
X236361904Y-188383390D02*
X236314285Y-188192914D01*
X236314285Y-188192914D02*
X236266666Y-188097676D01*
X236266666Y-188097676D02*
X236171428Y-188002438D01*
X236171428Y-188002438D02*
X236028571Y-187954819D01*
X236028571Y-187954819D02*
X235933333Y-187954819D01*
X235933333Y-187954819D02*
X235790476Y-188002438D01*
X235790476Y-188002438D02*
X235742857Y-188050057D01*
X234885714Y-188288152D02*
X234885714Y-188954819D01*
X235123809Y-187907200D02*
X235361904Y-188621485D01*
X235361904Y-188621485D02*
X234742857Y-188621485D01*
X234171428Y-187954819D02*
X234076190Y-187954819D01*
X234076190Y-187954819D02*
X233980952Y-188002438D01*
X233980952Y-188002438D02*
X233933333Y-188050057D01*
X233933333Y-188050057D02*
X233885714Y-188145295D01*
X233885714Y-188145295D02*
X233838095Y-188335771D01*
X233838095Y-188335771D02*
X233838095Y-188573866D01*
X233838095Y-188573866D02*
X233885714Y-188764342D01*
X233885714Y-188764342D02*
X233933333Y-188859580D01*
X233933333Y-188859580D02*
X233980952Y-188907200D01*
X233980952Y-188907200D02*
X234076190Y-188954819D01*
X234076190Y-188954819D02*
X234171428Y-188954819D01*
X234171428Y-188954819D02*
X234266666Y-188907200D01*
X234266666Y-188907200D02*
X234314285Y-188859580D01*
X234314285Y-188859580D02*
X234361904Y-188764342D01*
X234361904Y-188764342D02*
X234409523Y-188573866D01*
X234409523Y-188573866D02*
X234409523Y-188335771D01*
X234409523Y-188335771D02*
X234361904Y-188145295D01*
X234361904Y-188145295D02*
X234314285Y-188050057D01*
X234314285Y-188050057D02*
X234266666Y-188002438D01*
X234266666Y-188002438D02*
X234171428Y-187954819D01*
X212842857Y-184254819D02*
X213176190Y-183778628D01*
X213414285Y-184254819D02*
X213414285Y-183254819D01*
X213414285Y-183254819D02*
X213033333Y-183254819D01*
X213033333Y-183254819D02*
X212938095Y-183302438D01*
X212938095Y-183302438D02*
X212890476Y-183350057D01*
X212890476Y-183350057D02*
X212842857Y-183445295D01*
X212842857Y-183445295D02*
X212842857Y-183588152D01*
X212842857Y-183588152D02*
X212890476Y-183683390D01*
X212890476Y-183683390D02*
X212938095Y-183731009D01*
X212938095Y-183731009D02*
X213033333Y-183778628D01*
X213033333Y-183778628D02*
X213414285Y-183778628D01*
X211890476Y-184254819D02*
X212461904Y-184254819D01*
X212176190Y-184254819D02*
X212176190Y-183254819D01*
X212176190Y-183254819D02*
X212271428Y-183397676D01*
X212271428Y-183397676D02*
X212366666Y-183492914D01*
X212366666Y-183492914D02*
X212461904Y-183540533D01*
X211271428Y-183254819D02*
X211176190Y-183254819D01*
X211176190Y-183254819D02*
X211080952Y-183302438D01*
X211080952Y-183302438D02*
X211033333Y-183350057D01*
X211033333Y-183350057D02*
X210985714Y-183445295D01*
X210985714Y-183445295D02*
X210938095Y-183635771D01*
X210938095Y-183635771D02*
X210938095Y-183873866D01*
X210938095Y-183873866D02*
X210985714Y-184064342D01*
X210985714Y-184064342D02*
X211033333Y-184159580D01*
X211033333Y-184159580D02*
X211080952Y-184207200D01*
X211080952Y-184207200D02*
X211176190Y-184254819D01*
X211176190Y-184254819D02*
X211271428Y-184254819D01*
X211271428Y-184254819D02*
X211366666Y-184207200D01*
X211366666Y-184207200D02*
X211414285Y-184159580D01*
X211414285Y-184159580D02*
X211461904Y-184064342D01*
X211461904Y-184064342D02*
X211509523Y-183873866D01*
X211509523Y-183873866D02*
X211509523Y-183635771D01*
X211509523Y-183635771D02*
X211461904Y-183445295D01*
X211461904Y-183445295D02*
X211414285Y-183350057D01*
X211414285Y-183350057D02*
X211366666Y-183302438D01*
X211366666Y-183302438D02*
X211271428Y-183254819D01*
X228759580Y-177557142D02*
X228807200Y-177509523D01*
X228807200Y-177509523D02*
X228854819Y-177366666D01*
X228854819Y-177366666D02*
X228854819Y-177271428D01*
X228854819Y-177271428D02*
X228807200Y-177128571D01*
X228807200Y-177128571D02*
X228711961Y-177033333D01*
X228711961Y-177033333D02*
X228616723Y-176985714D01*
X228616723Y-176985714D02*
X228426247Y-176938095D01*
X228426247Y-176938095D02*
X228283390Y-176938095D01*
X228283390Y-176938095D02*
X228092914Y-176985714D01*
X228092914Y-176985714D02*
X227997676Y-177033333D01*
X227997676Y-177033333D02*
X227902438Y-177128571D01*
X227902438Y-177128571D02*
X227854819Y-177271428D01*
X227854819Y-177271428D02*
X227854819Y-177366666D01*
X227854819Y-177366666D02*
X227902438Y-177509523D01*
X227902438Y-177509523D02*
X227950057Y-177557142D01*
X228188152Y-178414285D02*
X228854819Y-178414285D01*
X227807200Y-178176190D02*
X228521485Y-177938095D01*
X228521485Y-177938095D02*
X228521485Y-178557142D01*
X227854819Y-178842857D02*
X227854819Y-179461904D01*
X227854819Y-179461904D02*
X228235771Y-179128571D01*
X228235771Y-179128571D02*
X228235771Y-179271428D01*
X228235771Y-179271428D02*
X228283390Y-179366666D01*
X228283390Y-179366666D02*
X228331009Y-179414285D01*
X228331009Y-179414285D02*
X228426247Y-179461904D01*
X228426247Y-179461904D02*
X228664342Y-179461904D01*
X228664342Y-179461904D02*
X228759580Y-179414285D01*
X228759580Y-179414285D02*
X228807200Y-179366666D01*
X228807200Y-179366666D02*
X228854819Y-179271428D01*
X228854819Y-179271428D02*
X228854819Y-178985714D01*
X228854819Y-178985714D02*
X228807200Y-178890476D01*
X228807200Y-178890476D02*
X228759580Y-178842857D01*
X221267857Y-181959580D02*
X221315476Y-182007200D01*
X221315476Y-182007200D02*
X221458333Y-182054819D01*
X221458333Y-182054819D02*
X221553571Y-182054819D01*
X221553571Y-182054819D02*
X221696428Y-182007200D01*
X221696428Y-182007200D02*
X221791666Y-181911961D01*
X221791666Y-181911961D02*
X221839285Y-181816723D01*
X221839285Y-181816723D02*
X221886904Y-181626247D01*
X221886904Y-181626247D02*
X221886904Y-181483390D01*
X221886904Y-181483390D02*
X221839285Y-181292914D01*
X221839285Y-181292914D02*
X221791666Y-181197676D01*
X221791666Y-181197676D02*
X221696428Y-181102438D01*
X221696428Y-181102438D02*
X221553571Y-181054819D01*
X221553571Y-181054819D02*
X221458333Y-181054819D01*
X221458333Y-181054819D02*
X221315476Y-181102438D01*
X221315476Y-181102438D02*
X221267857Y-181150057D01*
X220410714Y-181388152D02*
X220410714Y-182054819D01*
X220648809Y-181007200D02*
X220886904Y-181721485D01*
X220886904Y-181721485D02*
X220267857Y-181721485D01*
X219839285Y-182054819D02*
X219648809Y-182054819D01*
X219648809Y-182054819D02*
X219553571Y-182007200D01*
X219553571Y-182007200D02*
X219505952Y-181959580D01*
X219505952Y-181959580D02*
X219410714Y-181816723D01*
X219410714Y-181816723D02*
X219363095Y-181626247D01*
X219363095Y-181626247D02*
X219363095Y-181245295D01*
X219363095Y-181245295D02*
X219410714Y-181150057D01*
X219410714Y-181150057D02*
X219458333Y-181102438D01*
X219458333Y-181102438D02*
X219553571Y-181054819D01*
X219553571Y-181054819D02*
X219744047Y-181054819D01*
X219744047Y-181054819D02*
X219839285Y-181102438D01*
X219839285Y-181102438D02*
X219886904Y-181150057D01*
X219886904Y-181150057D02*
X219934523Y-181245295D01*
X219934523Y-181245295D02*
X219934523Y-181483390D01*
X219934523Y-181483390D02*
X219886904Y-181578628D01*
X219886904Y-181578628D02*
X219839285Y-181626247D01*
X219839285Y-181626247D02*
X219744047Y-181673866D01*
X219744047Y-181673866D02*
X219553571Y-181673866D01*
X219553571Y-181673866D02*
X219458333Y-181626247D01*
X219458333Y-181626247D02*
X219410714Y-181578628D01*
X219410714Y-181578628D02*
X219363095Y-181483390D01*
X224342857Y-191559580D02*
X224390476Y-191607200D01*
X224390476Y-191607200D02*
X224533333Y-191654819D01*
X224533333Y-191654819D02*
X224628571Y-191654819D01*
X224628571Y-191654819D02*
X224771428Y-191607200D01*
X224771428Y-191607200D02*
X224866666Y-191511961D01*
X224866666Y-191511961D02*
X224914285Y-191416723D01*
X224914285Y-191416723D02*
X224961904Y-191226247D01*
X224961904Y-191226247D02*
X224961904Y-191083390D01*
X224961904Y-191083390D02*
X224914285Y-190892914D01*
X224914285Y-190892914D02*
X224866666Y-190797676D01*
X224866666Y-190797676D02*
X224771428Y-190702438D01*
X224771428Y-190702438D02*
X224628571Y-190654819D01*
X224628571Y-190654819D02*
X224533333Y-190654819D01*
X224533333Y-190654819D02*
X224390476Y-190702438D01*
X224390476Y-190702438D02*
X224342857Y-190750057D01*
X223485714Y-190988152D02*
X223485714Y-191654819D01*
X223723809Y-190607200D02*
X223961904Y-191321485D01*
X223961904Y-191321485D02*
X223342857Y-191321485D01*
X223057142Y-190654819D02*
X222390476Y-190654819D01*
X222390476Y-190654819D02*
X222819047Y-191654819D01*
X224367857Y-180859580D02*
X224415476Y-180907200D01*
X224415476Y-180907200D02*
X224558333Y-180954819D01*
X224558333Y-180954819D02*
X224653571Y-180954819D01*
X224653571Y-180954819D02*
X224796428Y-180907200D01*
X224796428Y-180907200D02*
X224891666Y-180811961D01*
X224891666Y-180811961D02*
X224939285Y-180716723D01*
X224939285Y-180716723D02*
X224986904Y-180526247D01*
X224986904Y-180526247D02*
X224986904Y-180383390D01*
X224986904Y-180383390D02*
X224939285Y-180192914D01*
X224939285Y-180192914D02*
X224891666Y-180097676D01*
X224891666Y-180097676D02*
X224796428Y-180002438D01*
X224796428Y-180002438D02*
X224653571Y-179954819D01*
X224653571Y-179954819D02*
X224558333Y-179954819D01*
X224558333Y-179954819D02*
X224415476Y-180002438D01*
X224415476Y-180002438D02*
X224367857Y-180050057D01*
X223510714Y-180288152D02*
X223510714Y-180954819D01*
X223748809Y-179907200D02*
X223986904Y-180621485D01*
X223986904Y-180621485D02*
X223367857Y-180621485D01*
X222558333Y-179954819D02*
X222748809Y-179954819D01*
X222748809Y-179954819D02*
X222844047Y-180002438D01*
X222844047Y-180002438D02*
X222891666Y-180050057D01*
X222891666Y-180050057D02*
X222986904Y-180192914D01*
X222986904Y-180192914D02*
X223034523Y-180383390D01*
X223034523Y-180383390D02*
X223034523Y-180764342D01*
X223034523Y-180764342D02*
X222986904Y-180859580D01*
X222986904Y-180859580D02*
X222939285Y-180907200D01*
X222939285Y-180907200D02*
X222844047Y-180954819D01*
X222844047Y-180954819D02*
X222653571Y-180954819D01*
X222653571Y-180954819D02*
X222558333Y-180907200D01*
X222558333Y-180907200D02*
X222510714Y-180859580D01*
X222510714Y-180859580D02*
X222463095Y-180764342D01*
X222463095Y-180764342D02*
X222463095Y-180526247D01*
X222463095Y-180526247D02*
X222510714Y-180431009D01*
X222510714Y-180431009D02*
X222558333Y-180383390D01*
X222558333Y-180383390D02*
X222653571Y-180335771D01*
X222653571Y-180335771D02*
X222844047Y-180335771D01*
X222844047Y-180335771D02*
X222939285Y-180383390D01*
X222939285Y-180383390D02*
X222986904Y-180431009D01*
X222986904Y-180431009D02*
X223034523Y-180526247D01*
X212842857Y-189054819D02*
X213176190Y-188578628D01*
X213414285Y-189054819D02*
X213414285Y-188054819D01*
X213414285Y-188054819D02*
X213033333Y-188054819D01*
X213033333Y-188054819D02*
X212938095Y-188102438D01*
X212938095Y-188102438D02*
X212890476Y-188150057D01*
X212890476Y-188150057D02*
X212842857Y-188245295D01*
X212842857Y-188245295D02*
X212842857Y-188388152D01*
X212842857Y-188388152D02*
X212890476Y-188483390D01*
X212890476Y-188483390D02*
X212938095Y-188531009D01*
X212938095Y-188531009D02*
X213033333Y-188578628D01*
X213033333Y-188578628D02*
X213414285Y-188578628D01*
X211890476Y-189054819D02*
X212461904Y-189054819D01*
X212176190Y-189054819D02*
X212176190Y-188054819D01*
X212176190Y-188054819D02*
X212271428Y-188197676D01*
X212271428Y-188197676D02*
X212366666Y-188292914D01*
X212366666Y-188292914D02*
X212461904Y-188340533D01*
X210938095Y-189054819D02*
X211509523Y-189054819D01*
X211223809Y-189054819D02*
X211223809Y-188054819D01*
X211223809Y-188054819D02*
X211319047Y-188197676D01*
X211319047Y-188197676D02*
X211414285Y-188292914D01*
X211414285Y-188292914D02*
X211509523Y-188340533D01*
X227059580Y-191157142D02*
X227107200Y-191109523D01*
X227107200Y-191109523D02*
X227154819Y-190966666D01*
X227154819Y-190966666D02*
X227154819Y-190871428D01*
X227154819Y-190871428D02*
X227107200Y-190728571D01*
X227107200Y-190728571D02*
X227011961Y-190633333D01*
X227011961Y-190633333D02*
X226916723Y-190585714D01*
X226916723Y-190585714D02*
X226726247Y-190538095D01*
X226726247Y-190538095D02*
X226583390Y-190538095D01*
X226583390Y-190538095D02*
X226392914Y-190585714D01*
X226392914Y-190585714D02*
X226297676Y-190633333D01*
X226297676Y-190633333D02*
X226202438Y-190728571D01*
X226202438Y-190728571D02*
X226154819Y-190871428D01*
X226154819Y-190871428D02*
X226154819Y-190966666D01*
X226154819Y-190966666D02*
X226202438Y-191109523D01*
X226202438Y-191109523D02*
X226250057Y-191157142D01*
X226488152Y-192014285D02*
X227154819Y-192014285D01*
X226107200Y-191776190D02*
X226821485Y-191538095D01*
X226821485Y-191538095D02*
X226821485Y-192157142D01*
X226488152Y-192966666D02*
X227154819Y-192966666D01*
X226107200Y-192728571D02*
X226821485Y-192490476D01*
X226821485Y-192490476D02*
X226821485Y-193109523D01*
X235742857Y-186859580D02*
X235790476Y-186907200D01*
X235790476Y-186907200D02*
X235933333Y-186954819D01*
X235933333Y-186954819D02*
X236028571Y-186954819D01*
X236028571Y-186954819D02*
X236171428Y-186907200D01*
X236171428Y-186907200D02*
X236266666Y-186811961D01*
X236266666Y-186811961D02*
X236314285Y-186716723D01*
X236314285Y-186716723D02*
X236361904Y-186526247D01*
X236361904Y-186526247D02*
X236361904Y-186383390D01*
X236361904Y-186383390D02*
X236314285Y-186192914D01*
X236314285Y-186192914D02*
X236266666Y-186097676D01*
X236266666Y-186097676D02*
X236171428Y-186002438D01*
X236171428Y-186002438D02*
X236028571Y-185954819D01*
X236028571Y-185954819D02*
X235933333Y-185954819D01*
X235933333Y-185954819D02*
X235790476Y-186002438D01*
X235790476Y-186002438D02*
X235742857Y-186050057D01*
X235409523Y-185954819D02*
X234790476Y-185954819D01*
X234790476Y-185954819D02*
X235123809Y-186335771D01*
X235123809Y-186335771D02*
X234980952Y-186335771D01*
X234980952Y-186335771D02*
X234885714Y-186383390D01*
X234885714Y-186383390D02*
X234838095Y-186431009D01*
X234838095Y-186431009D02*
X234790476Y-186526247D01*
X234790476Y-186526247D02*
X234790476Y-186764342D01*
X234790476Y-186764342D02*
X234838095Y-186859580D01*
X234838095Y-186859580D02*
X234885714Y-186907200D01*
X234885714Y-186907200D02*
X234980952Y-186954819D01*
X234980952Y-186954819D02*
X235266666Y-186954819D01*
X235266666Y-186954819D02*
X235361904Y-186907200D01*
X235361904Y-186907200D02*
X235409523Y-186859580D01*
X234219047Y-186383390D02*
X234314285Y-186335771D01*
X234314285Y-186335771D02*
X234361904Y-186288152D01*
X234361904Y-186288152D02*
X234409523Y-186192914D01*
X234409523Y-186192914D02*
X234409523Y-186145295D01*
X234409523Y-186145295D02*
X234361904Y-186050057D01*
X234361904Y-186050057D02*
X234314285Y-186002438D01*
X234314285Y-186002438D02*
X234219047Y-185954819D01*
X234219047Y-185954819D02*
X234028571Y-185954819D01*
X234028571Y-185954819D02*
X233933333Y-186002438D01*
X233933333Y-186002438D02*
X233885714Y-186050057D01*
X233885714Y-186050057D02*
X233838095Y-186145295D01*
X233838095Y-186145295D02*
X233838095Y-186192914D01*
X233838095Y-186192914D02*
X233885714Y-186288152D01*
X233885714Y-186288152D02*
X233933333Y-186335771D01*
X233933333Y-186335771D02*
X234028571Y-186383390D01*
X234028571Y-186383390D02*
X234219047Y-186383390D01*
X234219047Y-186383390D02*
X234314285Y-186431009D01*
X234314285Y-186431009D02*
X234361904Y-186478628D01*
X234361904Y-186478628D02*
X234409523Y-186573866D01*
X234409523Y-186573866D02*
X234409523Y-186764342D01*
X234409523Y-186764342D02*
X234361904Y-186859580D01*
X234361904Y-186859580D02*
X234314285Y-186907200D01*
X234314285Y-186907200D02*
X234219047Y-186954819D01*
X234219047Y-186954819D02*
X234028571Y-186954819D01*
X234028571Y-186954819D02*
X233933333Y-186907200D01*
X233933333Y-186907200D02*
X233885714Y-186859580D01*
X233885714Y-186859580D02*
X233838095Y-186764342D01*
X233838095Y-186764342D02*
X233838095Y-186573866D01*
X233838095Y-186573866D02*
X233885714Y-186478628D01*
X233885714Y-186478628D02*
X233933333Y-186431009D01*
X233933333Y-186431009D02*
X234028571Y-186383390D01*
X236459580Y-183257142D02*
X236507200Y-183209523D01*
X236507200Y-183209523D02*
X236554819Y-183066666D01*
X236554819Y-183066666D02*
X236554819Y-182971428D01*
X236554819Y-182971428D02*
X236507200Y-182828571D01*
X236507200Y-182828571D02*
X236411961Y-182733333D01*
X236411961Y-182733333D02*
X236316723Y-182685714D01*
X236316723Y-182685714D02*
X236126247Y-182638095D01*
X236126247Y-182638095D02*
X235983390Y-182638095D01*
X235983390Y-182638095D02*
X235792914Y-182685714D01*
X235792914Y-182685714D02*
X235697676Y-182733333D01*
X235697676Y-182733333D02*
X235602438Y-182828571D01*
X235602438Y-182828571D02*
X235554819Y-182971428D01*
X235554819Y-182971428D02*
X235554819Y-183066666D01*
X235554819Y-183066666D02*
X235602438Y-183209523D01*
X235602438Y-183209523D02*
X235650057Y-183257142D01*
X235554819Y-184161904D02*
X235554819Y-183685714D01*
X235554819Y-183685714D02*
X236031009Y-183638095D01*
X236031009Y-183638095D02*
X235983390Y-183685714D01*
X235983390Y-183685714D02*
X235935771Y-183780952D01*
X235935771Y-183780952D02*
X235935771Y-184019047D01*
X235935771Y-184019047D02*
X235983390Y-184114285D01*
X235983390Y-184114285D02*
X236031009Y-184161904D01*
X236031009Y-184161904D02*
X236126247Y-184209523D01*
X236126247Y-184209523D02*
X236364342Y-184209523D01*
X236364342Y-184209523D02*
X236459580Y-184161904D01*
X236459580Y-184161904D02*
X236507200Y-184114285D01*
X236507200Y-184114285D02*
X236554819Y-184019047D01*
X236554819Y-184019047D02*
X236554819Y-183780952D01*
X236554819Y-183780952D02*
X236507200Y-183685714D01*
X236507200Y-183685714D02*
X236459580Y-183638095D01*
X235650057Y-184590476D02*
X235602438Y-184638095D01*
X235602438Y-184638095D02*
X235554819Y-184733333D01*
X235554819Y-184733333D02*
X235554819Y-184971428D01*
X235554819Y-184971428D02*
X235602438Y-185066666D01*
X235602438Y-185066666D02*
X235650057Y-185114285D01*
X235650057Y-185114285D02*
X235745295Y-185161904D01*
X235745295Y-185161904D02*
X235840533Y-185161904D01*
X235840533Y-185161904D02*
X235983390Y-185114285D01*
X235983390Y-185114285D02*
X236554819Y-184542857D01*
X236554819Y-184542857D02*
X236554819Y-185161904D01*
X212866666Y-182654819D02*
X213199999Y-182178628D01*
X213438094Y-182654819D02*
X213438094Y-181654819D01*
X213438094Y-181654819D02*
X213057142Y-181654819D01*
X213057142Y-181654819D02*
X212961904Y-181702438D01*
X212961904Y-181702438D02*
X212914285Y-181750057D01*
X212914285Y-181750057D02*
X212866666Y-181845295D01*
X212866666Y-181845295D02*
X212866666Y-181988152D01*
X212866666Y-181988152D02*
X212914285Y-182083390D01*
X212914285Y-182083390D02*
X212961904Y-182131009D01*
X212961904Y-182131009D02*
X213057142Y-182178628D01*
X213057142Y-182178628D02*
X213438094Y-182178628D01*
X212390475Y-182654819D02*
X212199999Y-182654819D01*
X212199999Y-182654819D02*
X212104761Y-182607200D01*
X212104761Y-182607200D02*
X212057142Y-182559580D01*
X212057142Y-182559580D02*
X211961904Y-182416723D01*
X211961904Y-182416723D02*
X211914285Y-182226247D01*
X211914285Y-182226247D02*
X211914285Y-181845295D01*
X211914285Y-181845295D02*
X211961904Y-181750057D01*
X211961904Y-181750057D02*
X212009523Y-181702438D01*
X212009523Y-181702438D02*
X212104761Y-181654819D01*
X212104761Y-181654819D02*
X212295237Y-181654819D01*
X212295237Y-181654819D02*
X212390475Y-181702438D01*
X212390475Y-181702438D02*
X212438094Y-181750057D01*
X212438094Y-181750057D02*
X212485713Y-181845295D01*
X212485713Y-181845295D02*
X212485713Y-182083390D01*
X212485713Y-182083390D02*
X212438094Y-182178628D01*
X212438094Y-182178628D02*
X212390475Y-182226247D01*
X212390475Y-182226247D02*
X212295237Y-182273866D01*
X212295237Y-182273866D02*
X212104761Y-182273866D01*
X212104761Y-182273866D02*
X212009523Y-182226247D01*
X212009523Y-182226247D02*
X211961904Y-182178628D01*
X211961904Y-182178628D02*
X211914285Y-182083390D01*
X230759580Y-177157142D02*
X230807200Y-177109523D01*
X230807200Y-177109523D02*
X230854819Y-176966666D01*
X230854819Y-176966666D02*
X230854819Y-176871428D01*
X230854819Y-176871428D02*
X230807200Y-176728571D01*
X230807200Y-176728571D02*
X230711961Y-176633333D01*
X230711961Y-176633333D02*
X230616723Y-176585714D01*
X230616723Y-176585714D02*
X230426247Y-176538095D01*
X230426247Y-176538095D02*
X230283390Y-176538095D01*
X230283390Y-176538095D02*
X230092914Y-176585714D01*
X230092914Y-176585714D02*
X229997676Y-176633333D01*
X229997676Y-176633333D02*
X229902438Y-176728571D01*
X229902438Y-176728571D02*
X229854819Y-176871428D01*
X229854819Y-176871428D02*
X229854819Y-176966666D01*
X229854819Y-176966666D02*
X229902438Y-177109523D01*
X229902438Y-177109523D02*
X229950057Y-177157142D01*
X229854819Y-177490476D02*
X229854819Y-178109523D01*
X229854819Y-178109523D02*
X230235771Y-177776190D01*
X230235771Y-177776190D02*
X230235771Y-177919047D01*
X230235771Y-177919047D02*
X230283390Y-178014285D01*
X230283390Y-178014285D02*
X230331009Y-178061904D01*
X230331009Y-178061904D02*
X230426247Y-178109523D01*
X230426247Y-178109523D02*
X230664342Y-178109523D01*
X230664342Y-178109523D02*
X230759580Y-178061904D01*
X230759580Y-178061904D02*
X230807200Y-178014285D01*
X230807200Y-178014285D02*
X230854819Y-177919047D01*
X230854819Y-177919047D02*
X230854819Y-177633333D01*
X230854819Y-177633333D02*
X230807200Y-177538095D01*
X230807200Y-177538095D02*
X230759580Y-177490476D01*
X230188152Y-178966666D02*
X230854819Y-178966666D01*
X229807200Y-178728571D02*
X230521485Y-178490476D01*
X230521485Y-178490476D02*
X230521485Y-179109523D01*
%TO.C,C41*%
D12*
X228865580Y-188990000D02*
X228584420Y-188990000D01*
X228865580Y-190010000D02*
X228584420Y-190010000D01*
%TO.C,R7*%
X215584420Y-186490000D02*
X215865580Y-186490000D01*
X215584420Y-187510000D02*
X215865580Y-187510000D01*
%TO.C,R12*%
X215584420Y-189690000D02*
X215865580Y-189690000D01*
X215584420Y-190710000D02*
X215865580Y-190710000D01*
%TO.C,C50*%
X220765580Y-188290000D02*
X220484420Y-188290000D01*
X220765580Y-189310000D02*
X220484420Y-189310000D01*
%TO.C,C45*%
X223865580Y-181990000D02*
X223584420Y-181990000D01*
X223865580Y-183010000D02*
X223584420Y-183010000D01*
%TO.C,R8*%
X215584420Y-184890000D02*
X215865580Y-184890000D01*
X215584420Y-185910000D02*
X215865580Y-185910000D01*
%TO.C,C36*%
X230790000Y-184040580D02*
X230790000Y-183759420D01*
X231810000Y-184040580D02*
X231810000Y-183759420D01*
%TO.C,C39*%
X228865580Y-186990000D02*
X228584420Y-186990000D01*
X228865580Y-188010000D02*
X228584420Y-188010000D01*
%TO.C,C35*%
X228865580Y-182990000D02*
X228584420Y-182990000D01*
X228865580Y-184010000D02*
X228584420Y-184010000D01*
%TO.C,C37*%
X228865580Y-184990000D02*
X228584420Y-184990000D01*
X228865580Y-186010000D02*
X228584420Y-186010000D01*
%TO.C,C48*%
X223865580Y-188990000D02*
X223584420Y-188990000D01*
X223865580Y-190010000D02*
X223584420Y-190010000D01*
%TO.C,C40*%
X231934420Y-187990000D02*
X232215580Y-187990000D01*
X231934420Y-189010000D02*
X232215580Y-189010000D01*
%TO.C,R10*%
X215584420Y-183290000D02*
X215865580Y-183290000D01*
X215584420Y-184310000D02*
X215865580Y-184310000D01*
%TO.C,C43*%
X227890000Y-181340580D02*
X227890000Y-181059420D01*
X228910000Y-181340580D02*
X228910000Y-181059420D01*
%TO.C,C49*%
X220765580Y-182990000D02*
X220484420Y-182990000D01*
X220765580Y-184010000D02*
X220484420Y-184010000D01*
%TO.C,C47*%
X223840580Y-187390000D02*
X223559420Y-187390000D01*
X223840580Y-188410000D02*
X223559420Y-188410000D01*
%TO.C,C46*%
X223865580Y-183990000D02*
X223584420Y-183990000D01*
X223865580Y-185010000D02*
X223584420Y-185010000D01*
%TO.C,R11*%
X215584420Y-188090000D02*
X215865580Y-188090000D01*
X215584420Y-189110000D02*
X215865580Y-189110000D01*
%TO.C,C44*%
X227890000Y-191659420D02*
X227890000Y-191940580D01*
X228910000Y-191659420D02*
X228910000Y-191940580D01*
%TO.C,C38*%
X231934420Y-185990000D02*
X232215580Y-185990000D01*
X231934420Y-187010000D02*
X232215580Y-187010000D01*
%TO.C,C52*%
X232390000Y-184040580D02*
X232390000Y-183759420D01*
X233410000Y-184040580D02*
X233410000Y-183759420D01*
%TO.C,R9*%
X215584420Y-181690000D02*
X215865580Y-181690000D01*
X215584420Y-182710000D02*
X215865580Y-182710000D01*
%TO.C,C34*%
X229890000Y-180965580D02*
X229890000Y-180684420D01*
X230910000Y-180965580D02*
X230910000Y-180684420D01*
%TD*%
M02*
