%TF.GenerationSoftware,KiCad,Pcbnew,10.0.3*%
%TF.CreationDate,2026-07-23T08:37:34+07:00*%
%TF.ProjectId,Project_VD,50726f6a-6563-4745-9f56-442e6b696361,rev?*%
%TF.SameCoordinates,Original*%
%TF.FileFunction,Profile,NP*%
%FSLAX46Y46*%
G04 Gerber Fmt 4.6, Leading zero omitted, Abs format (unit mm)*
G04 Created by KiCad (PCBNEW 10.0.3) date 2026-07-23 08:37:34*
%MOMM*%
%LPD*%
G01*
G04 APERTURE LIST*
%TA.AperFunction,Profile*%
%ADD10C,0.050000*%
%TD*%
G04 APERTURE END LIST*
D10*
X200000000Y-103900000D02*
X200000000Y-196100000D01*
X200000000Y-103900000D02*
G75*
G02*
X203900000Y-100000000I3900000J0D01*
G01*
X203900000Y-100000000D02*
X276100000Y-100000000D01*
X203900000Y-200000000D02*
G75*
G02*
X200000000Y-196100000I0J3900000D01*
G01*
X243900000Y-103200000D02*
X243900000Y-112400000D01*
X243900000Y-103200000D02*
G75*
G02*
X244900000Y-103200000I500000J0D01*
G01*
X244400000Y-112900000D02*
G75*
G02*
X243900000Y-112400000I0J500000D01*
G01*
X244400000Y-112900000D02*
X256700000Y-112900000D01*
X244900000Y-111400000D02*
X244900000Y-103200000D01*
X245400000Y-111900000D02*
G75*
G02*
X244900000Y-111400000I0J500000D01*
G01*
X256700000Y-112900000D02*
G75*
G02*
X257200000Y-113400000I0J-500000D01*
G01*
X257200000Y-113400000D02*
X257200000Y-116200000D01*
X257700000Y-111900000D02*
X245400000Y-111900000D01*
X257700000Y-111900000D02*
G75*
G02*
X258200000Y-112400000I0J-500000D01*
G01*
X258200000Y-112400000D02*
X258200000Y-116200000D01*
X258200000Y-116200000D02*
G75*
G02*
X257200000Y-116200000I-500000J0D01*
G01*
X262800000Y-125600000D02*
X270400000Y-125600000D01*
X262800016Y-125600050D02*
G75*
G02*
X262800016Y-124600150I-16J499950D01*
G01*
X268000000Y-103200000D02*
G75*
G02*
X269000000Y-103200000I500000J0D01*
G01*
X268000000Y-111500000D02*
X268000000Y-103200000D01*
X268500037Y-112000000D02*
G75*
G02*
X268000000Y-111500000I-37J500000D01*
G01*
X269000000Y-110500000D02*
X269000000Y-103200000D01*
X269400000Y-112000000D02*
X268500000Y-112000000D01*
X269400000Y-112000000D02*
G75*
G02*
X269900000Y-112500000I0J-500000D01*
G01*
X269400000Y-124600000D02*
X262800000Y-124600000D01*
X269500000Y-111000000D02*
G75*
G02*
X269000000Y-110500000I0J500000D01*
G01*
X269899993Y-124099969D02*
G75*
G02*
X269399993Y-124599993I-499993J-31D01*
G01*
X269900000Y-112500000D02*
X269900000Y-124100000D01*
X270400000Y-111000000D02*
X269500000Y-111000000D01*
X270400015Y-111000000D02*
G75*
G02*
X270900000Y-111500000I-15J-500000D01*
G01*
X270900000Y-113000000D02*
X270900000Y-111500000D01*
X270900000Y-125100000D02*
G75*
G02*
X270400000Y-125600000I-500000J0D01*
G01*
X270900000Y-125100000D02*
X270900000Y-113000000D01*
X276100000Y-100000000D02*
G75*
G02*
X280000000Y-103900000I0J-3900000D01*
G01*
X280000000Y-103900000D02*
X280000000Y-153900000D01*
X286100000Y-160000000D02*
G75*
G02*
X280000000Y-153900000I0J6100000D01*
G01*
X286100000Y-160000000D02*
X296100000Y-160000000D01*
X296100000Y-160000000D02*
G75*
G02*
X300000000Y-163900000I0J-3900000D01*
G01*
X296100000Y-200000000D02*
X203900000Y-200000000D01*
X300000000Y-163900000D02*
X300000000Y-196100000D01*
X300000000Y-196100000D02*
G75*
G02*
X296100000Y-200000000I-3900000J0D01*
G01*
M02*
