%TF.GenerationSoftware,KiCad,Pcbnew,10.0.3*%
%TF.CreationDate,2026-07-23T08:37:34+07:00*%
%TF.ProjectId,Project_VD,50726f6a-6563-4745-9f56-442e6b696361,rev?*%
%TF.SameCoordinates,Original*%
%TF.FileFunction,Soldermask,Top*%
%TF.FilePolarity,Negative*%
%FSLAX46Y46*%
G04 Gerber Fmt 4.6, Leading zero omitted, Abs format (unit mm)*
G04 Created by KiCad (PCBNEW 10.0.3) date 2026-07-23 08:37:34*
%MOMM*%
%LPD*%
G01*
G04 APERTURE LIST*
G04 Aperture macros list*
%AMRoundRect*
0 Rectangle with rounded corners*
0 $1 Rounding radius*
0 $2 $3 $4 $5 $6 $7 $8 $9 X,Y pos of 4 corners*
0 Add a 4 corners polygon primitive as box body*
4,1,4,$2,$3,$4,$5,$6,$7,$8,$9,$2,$3,0*
0 Add four circle primitives for the rounded corners*
1,1,$1+$1,$2,$3*
1,1,$1+$1,$4,$5*
1,1,$1+$1,$6,$7*
1,1,$1+$1,$8,$9*
0 Add four rect primitives between the rounded corners*
20,1,$1+$1,$2,$3,$4,$5,0*
20,1,$1+$1,$4,$5,$6,$7,0*
20,1,$1+$1,$6,$7,$8,$9,0*
20,1,$1+$1,$8,$9,$2,$3,0*%
G04 Aperture macros list end*
%ADD10RoundRect,0.250000X1.000000X0.650000X-1.000000X0.650000X-1.000000X-0.650000X1.000000X-0.650000X0*%
%ADD11RoundRect,0.225000X-0.250000X0.225000X-0.250000X-0.225000X0.250000X-0.225000X0.250000X0.225000X0*%
%ADD12RoundRect,0.225000X0.250000X-0.225000X0.250000X0.225000X-0.250000X0.225000X-0.250000X-0.225000X0*%
%ADD13RoundRect,0.200000X0.200000X0.275000X-0.200000X0.275000X-0.200000X-0.275000X0.200000X-0.275000X0*%
%ADD14RoundRect,0.225000X0.225000X0.250000X-0.225000X0.250000X-0.225000X-0.250000X0.225000X-0.250000X0*%
%ADD15C,0.360000*%
%ADD16RoundRect,0.218750X-0.218750X-0.256250X0.218750X-0.256250X0.218750X0.256250X-0.218750X0.256250X0*%
%ADD17RoundRect,0.225000X-0.225000X-0.250000X0.225000X-0.250000X0.225000X0.250000X-0.225000X0.250000X0*%
%ADD18RoundRect,0.249999X-0.525001X-0.900001X0.525001X-0.900001X0.525001X0.900001X-0.525001X0.900001X0*%
%ADD19RoundRect,0.150000X0.150000X-0.825000X0.150000X0.825000X-0.150000X0.825000X-0.150000X-0.825000X0*%
%ADD20RoundRect,0.250000X-0.350000X0.450000X-0.350000X-0.450000X0.350000X-0.450000X0.350000X0.450000X0*%
%ADD21R,3.600000X2.600000*%
%ADD22RoundRect,0.250000X0.350000X-0.450000X0.350000X0.450000X-0.350000X0.450000X-0.350000X-0.450000X0*%
%ADD23R,1.700000X1.700000*%
%ADD24C,1.700000*%
%ADD25RoundRect,0.075000X0.662500X0.075000X-0.662500X0.075000X-0.662500X-0.075000X0.662500X-0.075000X0*%
%ADD26RoundRect,0.075000X0.075000X0.662500X-0.075000X0.662500X-0.075000X-0.662500X0.075000X-0.662500X0*%
%ADD27RoundRect,0.250000X-1.500000X-1.000000X1.500000X-1.000000X1.500000X1.000000X-1.500000X1.000000X0*%
%ADD28RoundRect,0.375000X-0.375000X0.625000X-0.375000X-0.625000X0.375000X-0.625000X0.375000X0.625000X0*%
%ADD29RoundRect,0.500000X-1.400000X0.500000X-1.400000X-0.500000X1.400000X-0.500000X1.400000X0.500000X0*%
%ADD30RoundRect,0.112500X-0.577500X0.112500X-0.577500X-0.112500X0.577500X-0.112500X0.577500X0.112500X0*%
%ADD31RoundRect,0.250000X-0.400000X0.575000X-0.400000X-0.575000X0.400000X-0.575000X0.400000X0.575000X0*%
%ADD32RoundRect,0.250000X-0.525000X0.462500X-0.525000X-0.462500X0.525000X-0.462500X0.525000X0.462500X0*%
%ADD33RoundRect,0.250000X-0.700000X0.650000X-0.700000X-0.650000X0.700000X-0.650000X0.700000X0.650000X0*%
%ADD34RoundRect,0.250000X-0.700000X0.250000X-0.700000X-0.250000X0.700000X-0.250000X0.700000X0.250000X0*%
%ADD35RoundRect,0.137500X-0.600000X-0.137500X0.600000X-0.137500X0.600000X0.137500X-0.600000X0.137500X0*%
%ADD36RoundRect,0.137500X-0.137500X-0.600000X0.137500X-0.600000X0.137500X0.600000X-0.137500X0.600000X0*%
%ADD37RoundRect,0.250000X1.050000X-1.050000X1.050000X1.050000X-1.050000X1.050000X-1.050000X-1.050000X0*%
%ADD38C,2.600000*%
%ADD39C,5.400000*%
%ADD40RoundRect,0.250000X-1.000000X-0.650000X1.000000X-0.650000X1.000000X0.650000X-1.000000X0.650000X0*%
%ADD41RoundRect,0.150000X0.825000X0.150000X-0.825000X0.150000X-0.825000X-0.150000X0.825000X-0.150000X0*%
%ADD42RoundRect,0.250000X-2.050000X-0.300000X2.050000X-0.300000X2.050000X0.300000X-2.050000X0.300000X0*%
%ADD43RoundRect,0.250002X-4.449998X-5.149998X4.449998X-5.149998X4.449998X5.149998X-4.449998X5.149998X0*%
%ADD44RoundRect,0.218750X0.381250X-0.218750X0.381250X0.218750X-0.381250X0.218750X-0.381250X-0.218750X0*%
%ADD45RoundRect,0.102000X-2.850000X-1.000000X2.850000X-1.000000X2.850000X1.000000X-2.850000X1.000000X0*%
%ADD46RoundRect,0.200000X-0.275000X0.200000X-0.275000X-0.200000X0.275000X-0.200000X0.275000X0.200000X0*%
%ADD47R,5.400000X2.900000*%
%ADD48C,2.000000*%
G04 APERTURE END LIST*
D10*
%TO.C,D1*%
X215100000Y-154550000D03*
X211100000Y-154550000D03*
%TD*%
D11*
%TO.C,C27*%
X253862500Y-173725000D03*
X253862500Y-175275000D03*
%TD*%
D12*
%TO.C,C7*%
X260900000Y-162675000D03*
X260900000Y-161125000D03*
%TD*%
D11*
%TO.C,C28*%
X262500000Y-151525000D03*
X262500000Y-153075000D03*
%TD*%
D13*
%TO.C,R3*%
X206925000Y-165400000D03*
X205275000Y-165400000D03*
%TD*%
D12*
%TO.C,C63*%
X264700000Y-122175000D03*
X264700000Y-120625000D03*
%TD*%
D14*
%TO.C,C42*%
X224500000Y-194900000D03*
X222950000Y-194900000D03*
%TD*%
D11*
%TO.C,R16*%
X262200000Y-106225000D03*
X262200000Y-107775000D03*
%TD*%
D15*
%TO.C,U4*%
X235400000Y-181500000D03*
X235400000Y-182500000D03*
X235400000Y-189500000D03*
X235400000Y-190500000D03*
X234400000Y-181500000D03*
X234400000Y-190500000D03*
X232400000Y-182500000D03*
X232400000Y-183500000D03*
X232400000Y-184500000D03*
X232400000Y-185500000D03*
X232400000Y-186500000D03*
X232400000Y-187500000D03*
X232400000Y-188500000D03*
X232400000Y-189500000D03*
X231400000Y-182500000D03*
X231400000Y-183500000D03*
X231400000Y-184500000D03*
X231400000Y-185500000D03*
X231400000Y-186500000D03*
X231400000Y-187500000D03*
X231400000Y-188500000D03*
X231400000Y-189500000D03*
X230400000Y-182500000D03*
X230400000Y-183500000D03*
X230400000Y-184500000D03*
X230400000Y-185500000D03*
X230400000Y-186500000D03*
X230400000Y-187500000D03*
X230400000Y-188500000D03*
X230400000Y-189500000D03*
X229400000Y-182500000D03*
X229400000Y-183500000D03*
X229400000Y-184500000D03*
X229400000Y-185500000D03*
X229400000Y-186500000D03*
X229400000Y-187500000D03*
X229400000Y-188500000D03*
X229400000Y-189500000D03*
X228400000Y-182500000D03*
X228400000Y-183500000D03*
X228400000Y-184500000D03*
X228400000Y-185500000D03*
X228400000Y-186500000D03*
X228400000Y-187500000D03*
X228400000Y-188500000D03*
X228400000Y-189500000D03*
X227400000Y-182500000D03*
X227400000Y-183500000D03*
X227400000Y-184500000D03*
X227400000Y-185500000D03*
X227400000Y-186500000D03*
X227400000Y-187500000D03*
X227400000Y-188500000D03*
X227400000Y-189500000D03*
X226400000Y-182500000D03*
X226400000Y-183500000D03*
X226400000Y-184500000D03*
X226400000Y-185500000D03*
X226400000Y-186500000D03*
X226400000Y-187500000D03*
X226400000Y-188500000D03*
X226400000Y-189500000D03*
X225400000Y-182500000D03*
X225400000Y-183500000D03*
X225400000Y-184500000D03*
X225400000Y-185500000D03*
X225400000Y-186500000D03*
X225400000Y-187500000D03*
X225400000Y-188500000D03*
X225400000Y-189500000D03*
X224400000Y-182500000D03*
X224400000Y-183500000D03*
X224400000Y-184500000D03*
X224400000Y-185500000D03*
X224400000Y-186500000D03*
X224400000Y-187500000D03*
X224400000Y-188500000D03*
X224400000Y-189500000D03*
X223400000Y-182500000D03*
X223400000Y-183500000D03*
X223400000Y-184500000D03*
X223400000Y-185500000D03*
X223400000Y-186500000D03*
X223400000Y-187500000D03*
X223400000Y-188500000D03*
X223400000Y-189500000D03*
X222400000Y-182500000D03*
X222400000Y-183500000D03*
X222400000Y-184500000D03*
X222400000Y-185500000D03*
X222400000Y-186500000D03*
X222400000Y-187500000D03*
X222400000Y-188500000D03*
X222400000Y-189500000D03*
X220400000Y-181500000D03*
X220400000Y-190500000D03*
X219400000Y-181500000D03*
X219400000Y-182500000D03*
X219400000Y-189500000D03*
X219400000Y-190500000D03*
%TD*%
D10*
%TO.C,D4*%
X218400000Y-115800000D03*
X214400000Y-115800000D03*
%TD*%
D14*
%TO.C,R13*%
X228475000Y-194900000D03*
X226925000Y-194900000D03*
%TD*%
D12*
%TO.C,R5*%
X250612500Y-175275000D03*
X250612500Y-173725000D03*
%TD*%
D14*
%TO.C,C62*%
X246675000Y-129700000D03*
X245125000Y-129700000D03*
%TD*%
D16*
%TO.C,D3*%
X209012500Y-165400000D03*
X210587500Y-165400000D03*
%TD*%
D17*
%TO.C,C56*%
X255925000Y-132100000D03*
X257475000Y-132100000D03*
%TD*%
D11*
%TO.C,C64*%
X268100000Y-120625000D03*
X268100000Y-122175000D03*
%TD*%
D17*
%TO.C,C18*%
X258425000Y-171100000D03*
X259975000Y-171100000D03*
%TD*%
D18*
%TO.C,F1*%
X213950000Y-120900000D03*
X218100000Y-120900000D03*
%TD*%
D19*
%TO.C,U5*%
X254200000Y-141600000D03*
X255470000Y-141600000D03*
X256740000Y-141600000D03*
X258010000Y-141600000D03*
X258010000Y-136650000D03*
X256740000Y-136650000D03*
X255470000Y-136650000D03*
X254200000Y-136650000D03*
%TD*%
D17*
%TO.C,C30*%
X260900000Y-164800000D03*
X262450000Y-164800000D03*
%TD*%
D12*
%TO.C,C4*%
X218800000Y-158050000D03*
X218800000Y-156500000D03*
%TD*%
D14*
%TO.C,C59*%
X260575000Y-111700000D03*
X259025000Y-111700000D03*
%TD*%
D20*
%TO.C,Y2*%
X245050000Y-125600000D03*
X245050000Y-127800000D03*
X246750000Y-127800000D03*
X246750000Y-125600000D03*
%TD*%
D13*
%TO.C,R2*%
X206925000Y-145300000D03*
X205275000Y-145300000D03*
%TD*%
D12*
%TO.C,C20*%
X258162500Y-148575000D03*
X258162500Y-147025000D03*
%TD*%
D14*
%TO.C,C16*%
X243062500Y-173700000D03*
X241512500Y-173700000D03*
%TD*%
D12*
%TO.C,C58*%
X247200000Y-110100000D03*
X247200000Y-108550000D03*
%TD*%
D21*
%TO.C,BT1*%
X276223756Y-165350000D03*
X276223756Y-194650000D03*
%TD*%
D14*
%TO.C,R15*%
X260575000Y-106300000D03*
X259025000Y-106300000D03*
%TD*%
D12*
%TO.C,C25*%
X241462500Y-146075000D03*
X241462500Y-144525000D03*
%TD*%
D11*
%TO.C,C24*%
X255462500Y-173725000D03*
X255462500Y-175275000D03*
%TD*%
D12*
%TO.C,C14*%
X233200000Y-160375000D03*
X233200000Y-158825000D03*
%TD*%
D22*
%TO.C,Y1*%
X264850000Y-160300000D03*
X264850000Y-158100000D03*
X263150000Y-158100000D03*
X263150000Y-160300000D03*
%TD*%
D23*
%TO.C,J4*%
X264900000Y-108440000D03*
D24*
X264900000Y-105900000D03*
%TD*%
D12*
%TO.C,C22*%
X239862500Y-146075000D03*
X239862500Y-144525000D03*
%TD*%
D25*
%TO.C,U3*%
X257725000Y-168650000D03*
X257725000Y-168150000D03*
X257725000Y-167650000D03*
X257725000Y-167150000D03*
X257725000Y-166650000D03*
X257725000Y-166150000D03*
X257725000Y-165650000D03*
X257725000Y-165150000D03*
X257725000Y-164650000D03*
X257725000Y-164150000D03*
X257725000Y-163650000D03*
X257725000Y-163150000D03*
X257725000Y-162650000D03*
X257725000Y-162150000D03*
X257725000Y-161650000D03*
X257725000Y-161150000D03*
X257725000Y-160650000D03*
X257725000Y-160150000D03*
X257725000Y-159650000D03*
X257725000Y-159150000D03*
X257725000Y-158650000D03*
X257725000Y-158150000D03*
X257725000Y-157650000D03*
X257725000Y-157150000D03*
X257725000Y-156650000D03*
X257725000Y-156150000D03*
X257725000Y-155650000D03*
X257725000Y-155150000D03*
X257725000Y-154650000D03*
X257725000Y-154150000D03*
X257725000Y-153650000D03*
X257725000Y-153150000D03*
X257725000Y-152650000D03*
X257725000Y-152150000D03*
X257725000Y-151650000D03*
X257725000Y-151150000D03*
D26*
X255812500Y-149237500D03*
X255312500Y-149237500D03*
X254812500Y-149237500D03*
X254312500Y-149237500D03*
X253812500Y-149237500D03*
X253312500Y-149237500D03*
X252812500Y-149237500D03*
X252312500Y-149237500D03*
X251812500Y-149237500D03*
X251312500Y-149237500D03*
X250812500Y-149237500D03*
X250312500Y-149237500D03*
X249812500Y-149237500D03*
X249312500Y-149237500D03*
X248812500Y-149237500D03*
X248312500Y-149237500D03*
X247812500Y-149237500D03*
X247312500Y-149237500D03*
X246812500Y-149237500D03*
X246312500Y-149237500D03*
X245812500Y-149237500D03*
X245312500Y-149237500D03*
X244812500Y-149237500D03*
X244312500Y-149237500D03*
X243812500Y-149237500D03*
X243312500Y-149237500D03*
X242812500Y-149237500D03*
X242312500Y-149237500D03*
X241812500Y-149237500D03*
X241312500Y-149237500D03*
X240812500Y-149237500D03*
X240312500Y-149237500D03*
X239812500Y-149237500D03*
X239312500Y-149237500D03*
X238812500Y-149237500D03*
X238312500Y-149237500D03*
D25*
X236400000Y-151150000D03*
X236400000Y-151650000D03*
X236400000Y-152150000D03*
X236400000Y-152650000D03*
X236400000Y-153150000D03*
X236400000Y-153650000D03*
X236400000Y-154150000D03*
X236400000Y-154650000D03*
X236400000Y-155150000D03*
X236400000Y-155650000D03*
X236400000Y-156150000D03*
X236400000Y-156650000D03*
X236400000Y-157150000D03*
X236400000Y-157650000D03*
X236400000Y-158150000D03*
X236400000Y-158650000D03*
X236400000Y-159150000D03*
X236400000Y-159650000D03*
X236400000Y-160150000D03*
X236400000Y-160650000D03*
X236400000Y-161150000D03*
X236400000Y-161650000D03*
X236400000Y-162150000D03*
X236400000Y-162650000D03*
X236400000Y-163150000D03*
X236400000Y-163650000D03*
X236400000Y-164150000D03*
X236400000Y-164650000D03*
X236400000Y-165150000D03*
X236400000Y-165650000D03*
X236400000Y-166150000D03*
X236400000Y-166650000D03*
X236400000Y-167150000D03*
X236400000Y-167650000D03*
X236400000Y-168150000D03*
X236400000Y-168650000D03*
D26*
X238312500Y-170562500D03*
X238812500Y-170562500D03*
X239312500Y-170562500D03*
X239812500Y-170562500D03*
X240312500Y-170562500D03*
X240812500Y-170562500D03*
X241312500Y-170562500D03*
X241812500Y-170562500D03*
X242312500Y-170562500D03*
X242812500Y-170562500D03*
X243312500Y-170562500D03*
X243812500Y-170562500D03*
X244312500Y-170562500D03*
X244812500Y-170562500D03*
X245312500Y-170562500D03*
X245812500Y-170562500D03*
X246312500Y-170562500D03*
X246812500Y-170562500D03*
X247312500Y-170562500D03*
X247812500Y-170562500D03*
X248312500Y-170562500D03*
X248812500Y-170562500D03*
X249312500Y-170562500D03*
X249812500Y-170562500D03*
X250312500Y-170562500D03*
X250812500Y-170562500D03*
X251312500Y-170562500D03*
X251812500Y-170562500D03*
X252312500Y-170562500D03*
X252812500Y-170562500D03*
X253312500Y-170562500D03*
X253812500Y-170562500D03*
X254312500Y-170562500D03*
X254812500Y-170562500D03*
X255312500Y-170562500D03*
X255812500Y-170562500D03*
%TD*%
D27*
%TO.C,C2*%
X215900000Y-145300000D03*
X222400000Y-145300000D03*
%TD*%
D14*
%TO.C,C57*%
X255675000Y-114300000D03*
X254125000Y-114300000D03*
%TD*%
D12*
%TO.C,C8*%
X260900000Y-159375000D03*
X260900000Y-157825000D03*
%TD*%
%TO.C,C12*%
X238262500Y-146075000D03*
X238262500Y-144525000D03*
%TD*%
D14*
%TO.C,C15*%
X233175000Y-168800000D03*
X231625000Y-168800000D03*
%TD*%
D12*
%TO.C,C5*%
X231600000Y-160375000D03*
X231600000Y-158825000D03*
%TD*%
D11*
%TO.C,R6*%
X252212500Y-173725000D03*
X252212500Y-175275000D03*
%TD*%
D28*
%TO.C,U1*%
X225600000Y-151750000D03*
X223300000Y-151750000D03*
D29*
X223300000Y-158050000D03*
D28*
X221000000Y-151750000D03*
%TD*%
D30*
%TO.C,J2*%
X207960000Y-156150000D03*
X207960000Y-156800000D03*
X207960000Y-157450000D03*
X207960000Y-158100000D03*
X207960000Y-158750000D03*
D31*
X205300000Y-154075000D03*
D32*
X207875000Y-154962500D03*
D33*
X205300000Y-156300000D03*
D34*
X205300000Y-159000000D03*
D32*
X207875000Y-159937500D03*
D31*
X205300000Y-160825000D03*
%TD*%
D17*
%TO.C,C32*%
X263175000Y-156262500D03*
X264725000Y-156262500D03*
%TD*%
D35*
%TO.C,U7*%
X250137500Y-119200000D03*
X250137500Y-120000000D03*
X250137500Y-120800000D03*
X250137500Y-121600000D03*
X250137500Y-122400000D03*
X250137500Y-123200000D03*
X250137500Y-124000000D03*
X250137500Y-124800000D03*
X250137500Y-125600000D03*
X250137500Y-126400000D03*
X250137500Y-127200000D03*
D36*
X251800000Y-128862500D03*
X252600000Y-128862500D03*
X253400000Y-128862500D03*
X254200000Y-128862500D03*
X255000000Y-128862500D03*
X255800000Y-128862500D03*
X256600000Y-128862500D03*
X257400000Y-128862500D03*
X258200000Y-128862500D03*
X259000000Y-128862500D03*
X259800000Y-128862500D03*
D35*
X261462500Y-127200000D03*
X261462500Y-126400000D03*
X261462500Y-125600000D03*
X261462500Y-124800000D03*
X261462500Y-124000000D03*
X261462500Y-123200000D03*
X261462500Y-122400000D03*
X261462500Y-121600000D03*
X261462500Y-120800000D03*
X261462500Y-120000000D03*
X261462500Y-119200000D03*
D36*
X259800000Y-117537500D03*
X259000000Y-117537500D03*
X258200000Y-117537500D03*
X257400000Y-117537500D03*
X256600000Y-117537500D03*
X255800000Y-117537500D03*
X255000000Y-117537500D03*
X254200000Y-117537500D03*
X253400000Y-117537500D03*
X252600000Y-117537500D03*
X251800000Y-117537500D03*
%TD*%
D23*
%TO.C,J3*%
X274300000Y-160260000D03*
D24*
X274300000Y-157720000D03*
X274300000Y-155180000D03*
X274300000Y-152640000D03*
X274300000Y-150100000D03*
X274300000Y-147560000D03*
X274300000Y-145020000D03*
X274300000Y-142480000D03*
%TD*%
D12*
%TO.C,C19*%
X259762500Y-148575000D03*
X259762500Y-147025000D03*
%TD*%
D37*
%TO.C,J1*%
X207200000Y-120800000D03*
D38*
X207200000Y-115800000D03*
%TD*%
D17*
%TO.C,C33*%
X231300000Y-194900000D03*
X232850000Y-194900000D03*
%TD*%
D39*
%TO.C,H1*%
X272600000Y-107400000D03*
%TD*%
%TO.C,H4*%
X207400000Y-107400000D03*
%TD*%
D11*
%TO.C,C3*%
X218800000Y-151750000D03*
X218800000Y-153300000D03*
%TD*%
D40*
%TO.C,D5*%
X215900000Y-125000000D03*
X219900000Y-125000000D03*
%TD*%
D12*
%TO.C,C54*%
X252500000Y-137675000D03*
X252500000Y-136125000D03*
%TD*%
D41*
%TO.C,U6*%
X255575000Y-110240000D03*
X255575000Y-108970000D03*
X255575000Y-107700000D03*
X255575000Y-106430000D03*
X250625000Y-106430000D03*
X250625000Y-107700000D03*
X250625000Y-108970000D03*
X250625000Y-110240000D03*
%TD*%
D42*
%TO.C,U2*%
X225300000Y-130400000D03*
X225300000Y-132100000D03*
X225300000Y-133800000D03*
D43*
X234450000Y-133800000D03*
D42*
X225300000Y-135500000D03*
X225300000Y-137200000D03*
%TD*%
D12*
%TO.C,C31*%
X266625000Y-160375000D03*
X266625000Y-158825000D03*
%TD*%
D39*
%TO.C,H2*%
X292600000Y-192600000D03*
%TD*%
D11*
%TO.C,C29*%
X260900000Y-151525000D03*
X260900000Y-153075000D03*
%TD*%
D23*
%TO.C,J5*%
X274300000Y-131880000D03*
D24*
X274300000Y-129340000D03*
X274300000Y-126800000D03*
X274300000Y-124260000D03*
X274300000Y-121720000D03*
X274300000Y-119180000D03*
X274300000Y-116640000D03*
X274300000Y-114100000D03*
%TD*%
D17*
%TO.C,R17*%
X245150000Y-121000000D03*
X246700000Y-121000000D03*
%TD*%
D14*
%TO.C,C10*%
X253062500Y-146000000D03*
X251512500Y-146000000D03*
%TD*%
D16*
%TO.C,D2*%
X209012500Y-145300000D03*
X210587500Y-145300000D03*
%TD*%
D17*
%TO.C,C9*%
X260900000Y-154700000D03*
X262450000Y-154700000D03*
%TD*%
D14*
%TO.C,C26*%
X233175000Y-165600000D03*
X231625000Y-165600000D03*
%TD*%
D12*
%TO.C,R4*%
X264150000Y-153075000D03*
X264150000Y-151525000D03*
%TD*%
D11*
%TO.C,C13*%
X233200000Y-154400000D03*
X233200000Y-155950000D03*
%TD*%
D17*
%TO.C,C11*%
X246562500Y-146000000D03*
X248112500Y-146000000D03*
%TD*%
D11*
%TO.C,C53*%
X252500000Y-140525000D03*
X252500000Y-142075000D03*
%TD*%
D17*
%TO.C,C6*%
X260900000Y-166400000D03*
X262450000Y-166400000D03*
%TD*%
%TO.C,C60*%
X259025000Y-107900000D03*
X260575000Y-107900000D03*
%TD*%
%TO.C,C21*%
X258425000Y-172700000D03*
X259975000Y-172700000D03*
%TD*%
%TO.C,R14*%
X259025000Y-110100000D03*
X260575000Y-110100000D03*
%TD*%
D11*
%TO.C,C61*%
X243300000Y-125925000D03*
X243300000Y-127475000D03*
%TD*%
D44*
%TO.C,L2*%
X266400000Y-122162500D03*
X266400000Y-120037500D03*
%TD*%
D39*
%TO.C,H3*%
X207400000Y-192600000D03*
%TD*%
D14*
%TO.C,C23*%
X233175000Y-167200000D03*
X231625000Y-167200000D03*
%TD*%
D45*
%TO.C,C1*%
X225400000Y-120900000D03*
X235100000Y-120900000D03*
%TD*%
D14*
%TO.C,C17*%
X248062500Y-173700000D03*
X246512500Y-173700000D03*
%TD*%
D12*
%TO.C,C51*%
X238300000Y-184600000D03*
X238300000Y-183050000D03*
%TD*%
D46*
%TO.C,R1*%
X210300000Y-157700000D03*
X210300000Y-159350000D03*
%TD*%
D14*
%TO.C,C55*%
X246700000Y-122600000D03*
X245150000Y-122600000D03*
%TD*%
D47*
%TO.C,L1*%
X215900000Y-128850000D03*
X215900000Y-138750000D03*
%TD*%
D48*
X286100000Y-161500000D02*
X296100000Y-161500000D01*
X201500000Y-196100000D02*
X201500000Y-103900000D01*
X278500000Y-103900000D02*
X278500000Y-153900000D01*
X203900000Y-101500000D02*
X276100000Y-101500000D01*
X298500000Y-163900000D02*
X298500000Y-196100000D01*
X296099999Y-198499999D02*
X203900000Y-198500000D01*
X201500000Y-103900000D02*
G75*
G02*
X203900000Y-101500000I2400000J0D01*
G01*
X203900000Y-198500000D02*
G75*
G02*
X201500000Y-196100000I0J2400000D01*
G01*
X286100000Y-161500000D02*
G75*
G02*
X278500000Y-153900000I0J7600000D01*
G01*
X298500000Y-196100000D02*
G75*
G02*
X296100000Y-198500000I-2400000J0D01*
G01*
X296100000Y-161500000D02*
G75*
G02*
X298500000Y-163900000I0J-2400000D01*
G01*
X276100000Y-101500000D02*
G75*
G02*
X278500000Y-103900000I0J-2400000D01*
G01*
M02*
